<?xml version="1.0" encoding="UTF-8" standalone="no"?>
<!-- Created with Inkscape (http://www.inkscape.org/) -->

<svg
   version="1.1"
   id="svg2"
   width="1293.7733"
   height="202.42667"
   viewBox="0 0 1293.7733 202.42667"
   sodipodi:docname="mc2_svart_en.eps"
   xmlns:inkscape="http://www.inkscape.org/namespaces/inkscape"
   xmlns:sodipodi="http://sodipodi.sourceforge.net/DTD/sodipodi-0.dtd"
   xmlns="http://www.w3.org/2000/svg"
   xmlns:svg="http://www.w3.org/2000/svg">
  <defs
     id="defs6" />
  <sodipodi:namedview
     id="namedview4"
     pagecolor="#ffffff"
     bordercolor="#000000"
     borderopacity="0.25"
     inkscape:showpageshadow="2"
     inkscape:pageopacity="0.0"
     inkscape:pagecheckerboard="0"
     inkscape:deskcolor="#d1d1d1" />
  <g
     id="g8"
     inkscape:groupmode="layer"
     inkscape:label="ink_ext_XXXXXX"
     transform="matrix(1.3333333,0,0,-1.3333333,0,202.42667)">
    <g
       id="g10"
       transform="scale(0.1)">
      <path
         d="M 6208.29,1153.55 V 994.781 h 19.13 c 34.15,0 46.1,1.699 56.35,5.439 17.41,6.81 35.85,21.76 35.85,71.74 0,22.43 -3.41,59.15 -36.88,75.13 -12.98,5.78 -20.15,6.12 -50.54,6.46 z m -45.07,40.79 h 86.4 c 20.83,-0.33 46.1,-0.67 71.37,-18.69 40.29,-28.22 46.44,-76.49 46.44,-103.35 0,-41.14 -14,-82.96 -49.52,-103.351 -23.9,-13.945 -49.17,-14.277 -77.52,-14.617 h -77.17 v 240.008"
         style="fill:#4f4c4c;fill-opacity:1;fill-rule:nonzero;stroke:none"
         id="path12" />
      <path
         d="m 6512.5,1061.08 c -3.75,26.51 -20.14,35.69 -38.24,35.69 -21.86,0 -36.88,-12.57 -41.66,-35.69 z m 46.45,-68.674 c -21.18,-28.222 -48.5,-43.172 -83.33,-43.172 -44.73,0 -87.76,28.211 -87.76,90.766 0,57.11 36.88,89.41 85.03,89.41 45.08,0 63.86,-26.86 67.27,-31.95 14,-19.72 17.08,-49.3 17.42,-66.3 h -126.35 c 4.78,-26.86 21.51,-42.152 48.49,-42.152 28,0 39.27,16.322 44.39,23.452 l 34.84,-20.054"
         style="fill:#4f4c4c;fill-opacity:1;fill-rule:nonzero;stroke:none"
         id="path14" />
      <path
         d="m 6664.43,987.641 c 19.81,0 41.32,13.609 41.32,52.019 0,42.49 -29.71,50.66 -42,50.66 -18.78,0 -40.29,-13.61 -40.98,-49.98 -0.68,-35.01 18.78,-52.699 41.66,-52.699 z m -81.95,136.669 h 40.63 v -15.63 c 6.49,6.79 20.15,20.73 46.79,20.73 50.2,0 77.52,-44.87 77.52,-91.79 0,-50.651 -31.76,-88.386 -77.52,-88.386 -23.56,0 -38.25,11.211 -46.79,19.032 V 898.91 h -40.63 v 225.4"
         style="fill:#4f4c4c;fill-opacity:1;fill-rule:nonzero;stroke:none"
         id="path16" />
      <path
         d="m 6874.15,1038.98 c -8.19,-4.08 -17.41,-7.14 -35.86,-10.19 -14.68,-2.05 -34.15,-5.45 -34.15,-23.46 0,-13.264 11.27,-20.06 27.67,-20.06 20.83,0 35.51,9.511 39.95,19.71 2.39,5.1 2.39,10.2 2.39,15.3 z m -105.52,35.36 c 0.69,8.5 1.37,15.64 6.83,25.49 16.39,29.58 57.03,29.58 67.96,29.58 16.38,0 36.2,-2.04 51.22,-10.88 20.14,-12.24 20.49,-28.21 20.49,-46.57 v -90.089 c 0,-12.922 0,-17.344 7.52,-27.539 h -48.5 c -0.34,4.07 -1.03,10.879 -1.03,13.25 -8.87,-7.469 -26.97,-17.332 -50.53,-17.332 -38.6,0 -61.82,23.797 -61.82,53.04 0,8.49 2.05,16.32 5.47,23.11 12.29,24.48 38.58,29.91 54.98,32.98 35.18,7.14 37.9,7.81 52.93,12.58 0,8.49 -0.68,25.84 -29.02,25.84 -17.08,0 -26.3,-5.44 -30.39,-10.88 -4.45,-5.44 -4.11,-10.21 -4.11,-14.96 l -42,2.38"
         style="fill:#4f4c4c;fill-opacity:1;fill-rule:nonzero;stroke:none"
         id="path18" />
      <path
         d="m 6989.28,1124.31 v -24.14 c 5.11,8.84 16.38,28.9 54.63,27.88 v -41.82 c -8.88,-0.34 -24.24,-0.68 -36.88,-10.19 -17.41,-13.26 -17.75,-30.61 -17.75,-58.82 v -62.888 h -39.62 v 169.978 h 39.62"
         style="fill:#4f4c4c;fill-opacity:1;fill-rule:nonzero;stroke:none"
         id="path20" />
      <path
         d="m 7116.79,1095.07 v -76.83 c 0,-21.076 0,-30.256 19.46,-30.256 6.15,0 11.27,0.34 17.08,2.039 v -34.335 c -12.3,-2.04 -20.49,-2.723 -29.72,-2.723 -8.53,0 -37.21,0 -45.07,20.742 -2.73,6.797 -2.73,17.676 -2.73,34.673 v 86.69 h -24.93 v 29.24 h 24.93 v 60.18 h 40.98 v -60.18 h 36.54 v -29.24 h -36.54"
         style="fill:#4f4c4c;fill-opacity:1;fill-rule:nonzero;stroke:none"
         id="path22" />
      <path
         d="m 7172.97,1124.31 h 40.63 v -19.04 c 13.66,17 37.91,24.14 53.96,24.14 16.05,0 36.2,-6.11 47.47,-26.17 6.82,9.51 24.59,26.17 54.64,26.17 17.07,0 33.46,-4.76 45.07,-17.34 13.66,-14.96 13.32,-32.97 13.32,-50.65 V 954.332 h -40.64 v 93.828 c 0,15.98 2.39,42.83 -28.68,42.83 -12.98,0 -23.57,-7.14 -29.03,-15.97 -7.86,-12.58 -8.88,-26.18 -8.88,-40.8 v -79.888 h -40.64 v 94.848 c 0,12.24 0,16.66 -1.36,21.75 -3.08,11.22 -11.96,20.06 -26.3,20.06 -12.29,0 -24.24,-7.14 -31.42,-19.72 -7.17,-13.25 -7.51,-29.23 -7.51,-45.88 v -71.058 h -40.63 v 169.978"
         style="fill:#4f4c4c;fill-opacity:1;fill-rule:nonzero;stroke:none"
         id="path24" />
      <path
         d="m 7577.74,1061.08 c -3.75,26.51 -20.14,35.69 -38.24,35.69 -21.85,0 -36.88,-12.57 -41.66,-35.69 z m 46.45,-68.674 c -21.17,-28.222 -48.5,-43.172 -83.32,-43.172 -44.74,0 -87.77,28.211 -87.77,90.766 0,57.11 36.88,89.41 85.03,89.41 45.08,0 63.86,-26.86 67.28,-31.95 13.99,-19.72 17.07,-49.3 17.41,-66.3 h -126.35 c 4.78,-26.86 21.52,-42.152 48.49,-42.152 28.01,0 39.28,16.322 44.39,23.452 l 34.84,-20.054"
         style="fill:#4f4c4c;fill-opacity:1;fill-rule:nonzero;stroke:none"
         id="path26" />
      <path
         d="m 7647.42,1124.31 h 41.32 v -20.06 c 2.05,3.06 6.14,8.5 13.32,13.27 10.24,7.48 25.95,11.89 39.27,11.89 19.46,0 36.2,-8.84 44.73,-20.4 10.59,-14.28 10.59,-32.64 10.59,-54.73 v -99.948 h -40.64 v 86.688 c 0,12.58 0,21.07 -1.36,25.84 -3.76,14.95 -14.69,22.77 -28,22.77 -13.32,0 -25.62,-7.82 -31.43,-19.03 -6.48,-12.58 -6.48,-29.92 -6.48,-42.5 v -73.768 h -41.32 v 169.978"
         style="fill:#4f4c4c;fill-opacity:1;fill-rule:nonzero;stroke:none"
         id="path28" />
      <path
         d="m 7876.53,1095.07 v -76.83 c 0,-21.076 0,-30.256 19.46,-30.256 6.15,0 11.27,0.34 17.08,2.039 v -34.335 c -12.3,-2.04 -20.49,-2.723 -29.71,-2.723 -8.54,0 -37.23,0 -45.08,20.742 -2.73,6.797 -2.73,17.676 -2.73,34.673 v 86.69 h -24.93 v 29.24 h 24.93 v 60.18 h 40.98 v -60.18 h 36.54 v -29.24 h -36.54"
         style="fill:#4f4c4c;fill-opacity:1;fill-rule:nonzero;stroke:none"
         id="path30" />
      <path
         d="m 8095.77,1092.69 c -25.61,0 -44.05,-20.39 -44.05,-51.67 0,-35.02 21.51,-54.395 46.1,-54.395 29.71,0 44.74,25.835 43.71,54.055 -0.68,28.22 -17.07,52.01 -45.76,52.01 z m 2.05,-143.456 c -53.27,0 -88.79,38.75 -88.79,90.766 0,52.02 36.2,89.41 87.08,89.41 47.47,0 88.11,-32.98 88.45,-89.41 0,-53.031 -35.18,-90.766 -86.74,-90.766"
         style="fill:#4f4c4c;fill-opacity:1;fill-rule:nonzero;stroke:none"
         id="path32" />
      <path
         d="M 8254.68,1095.41 V 954.332 h -40.98 v 141.078 h -25.62 v 29.24 h 25.62 v 19.38 c -0.34,24.14 -0.34,50.65 54.98,50.65 8.19,0 15.7,-0.67 23.22,-1.36 v -34.67 c -3.41,0.68 -7.17,1.01 -12.98,1.01 -10.92,0 -17.42,-2.37 -21.51,-8.49 -1.37,-2.38 -2.73,-7.48 -2.73,-12.58 v -13.94 h 37.22 v -29.24 h -37.22"
         style="fill:#4f4c4c;fill-opacity:1;fill-rule:nonzero;stroke:none"
         id="path34" />
      <path
         d="M 6428.56,864.34 V 624.332 h -57.71 l 3.75,170.996 0.69,24.141 -2.05,-8.496 c -3.08,-13.606 -3.42,-15.305 -6.15,-25.5 l -45.42,-161.141 h -51.91 l -43.71,154.344 -10.58,42.832 c 1.02,-19.043 1.02,-23.113 2.05,-45.899 l 3.07,-151.277 H 6162.2 V 864.34 h 88.1 l 36.88,-134.617 8.54,-38.418 c 3.41,16.66 3.76,18.359 6.49,29.57 l 38.58,143.465 h 87.77"
         style="fill:#4f4c4c;fill-opacity:1;fill-rule:nonzero;stroke:none"
         id="path36" />
      <path
         d="M 6531.94,864.34 V 624.332 h -60.1 V 864.34 h 60.1"
         style="fill:#4f4c4c;fill-opacity:1;fill-rule:nonzero;stroke:none"
         id="path38" />
      <path
         d="m 6783.2,679.066 c -8.88,-13.945 -17.41,-27.539 -36.53,-40.8 -10.25,-7.137 -33.81,-21.075 -67.28,-21.075 -63.85,0 -115.42,46.231 -115.42,127.481 0,71.055 48.49,127.148 116.79,127.148 27.66,0 52.25,-9.519 70.34,-23.797 16.74,-13.253 24.59,-26.515 31.43,-38.41 l -47.81,-23.797 c -3.42,7.813 -7.51,15.977 -18.1,24.813 -11.61,9.18 -23.22,11.894 -33.13,11.894 -38.93,0 -59.42,-36.035 -59.42,-76.152 0,-52.695 26.98,-78.867 59.42,-78.867 31.42,0 44.06,21.758 52.25,35.695 l 47.46,-24.133"
         style="fill:#4f4c4c;fill-opacity:1;fill-rule:nonzero;stroke:none"
         id="path40" />
      <path
         d="m 6865.31,819.469 v -64.934 h 49.85 c 8.54,0.344 36.21,1.016 36.21,32.981 0,30.593 -22.2,31.609 -34.84,31.953 z m -60.45,44.871 h 108.6 c 25.27,-0.332 56.69,-0.672 78.88,-24.473 11.27,-12.578 19.12,-31.621 19.12,-53.379 0,-48.269 -33.12,-60.175 -49.51,-66.289 l 55.67,-95.867 h -66.6 l -47.81,85.664 h -37.9 v -85.664 h -60.45 V 864.34"
         style="fill:#4f4c4c;fill-opacity:1;fill-rule:nonzero;stroke:none"
         id="path42" />
      <path
         d="m 7191.44,804.176 c -10.24,10.879 -25.95,17.676 -42.34,17.676 -36.54,0 -59.77,-31.965 -59.77,-75.481 0,-57.109 32.1,-78.183 60.44,-78.183 28.7,0 59.43,20.39 61.14,70.714 1.02,25.157 -5.81,50.653 -19.47,65.274 z m -41.67,-186.653 c -76.49,0 -119.86,58.477 -119.86,127.832 0,64.934 41.33,126.465 118.85,126.465 14.33,0 29.36,-2.039 44.05,-7.136 73.76,-25.5 78.54,-105.391 78.54,-121.711 0,-41.473 -19.12,-78.868 -45.76,-100.282 -23.56,-19.386 -50.88,-25.168 -75.82,-25.168"
         style="fill:#4f4c4c;fill-opacity:1;fill-rule:nonzero;stroke:none"
         id="path44" />
      <path
         d="m 7277.06,864.684 h 185.77 v -47.598 h -62.49 V 624.332 h -60.45 v 192.754 h -62.83 v 47.598"
         style="fill:#4f4c4c;fill-opacity:1;fill-rule:nonzero;stroke:none"
         id="path46" />
      <path
         d="m 7482.33,864.34 h 178.26 v -46.57 h -118.15 v -43.516 h 110.3 v -45.559 h -110.3 v -57.109 h 128.74 V 624.332 H 7482.33 V 864.34"
         style="fill:#4f4c4c;fill-opacity:1;fill-rule:nonzero;stroke:none"
         id="path48" />
      <path
         d="m 7905.55,679.066 c -8.88,-13.945 -17.42,-27.539 -36.54,-40.8 -10.24,-7.137 -33.81,-21.075 -67.27,-21.075 -63.86,0 -115.42,46.231 -115.42,127.481 0,71.055 48.48,127.148 116.78,127.148 27.66,0 52.25,-9.519 70.35,-23.797 16.73,-13.253 24.59,-26.515 31.42,-38.41 l -47.81,-23.797 c -3.42,7.813 -7.51,15.977 -18.1,24.813 -11.61,9.18 -23.22,11.894 -33.12,11.894 -38.94,0 -59.43,-36.035 -59.43,-76.152 0,-52.695 26.99,-78.867 59.43,-78.867 31.41,0 44.05,21.758 52.24,35.695 l 47.47,-24.133"
         style="fill:#4f4c4c;fill-opacity:1;fill-rule:nonzero;stroke:none"
         id="path50" />
      <path
         d="M 8136.71,864.34 V 624.332 h -60.44 v 102.324 h -88.11 V 624.332 h -60.78 V 864.34 h 60.78 v -86.688 h 88.11 v 86.688 h 60.44"
         style="fill:#4f4c4c;fill-opacity:1;fill-rule:nonzero;stroke:none"
         id="path52" />
      <path
         d="m 8179.61,864.34 h 59.08 l 52.25,-88.387 c 19.12,-33.652 24.93,-44.531 36.2,-65.617 l -2.74,154.004 h 57.72 V 624.332 h -59.08 l -45.08,75.809 c -21.86,35.695 -25.95,43.175 -42.35,75.129 l 1.71,-150.938 h -57.71 V 864.34"
         style="fill:#4f4c4c;fill-opacity:1;fill-rule:nonzero;stroke:none"
         id="path54" />
      <path
         d="m 8576.05,804.176 c -10.24,10.879 -25.94,17.676 -42.34,17.676 -36.54,0 -59.76,-31.965 -59.76,-75.481 0,-57.109 32.1,-78.183 60.44,-78.183 28.68,0 59.43,20.39 61.13,70.714 1.02,25.157 -5.8,50.653 -19.47,65.274 z m -41.66,-186.653 c -76.49,0 -119.86,58.477 -119.86,127.832 0,64.934 41.32,126.465 118.84,126.465 14.34,0 29.36,-2.039 44.05,-7.136 73.76,-25.5 78.55,-105.391 78.55,-121.711 0,-41.473 -19.13,-78.868 -45.77,-100.282 -23.56,-19.386 -50.88,-25.168 -75.81,-25.168"
         style="fill:#4f4c4c;fill-opacity:1;fill-rule:nonzero;stroke:none"
         id="path56" />
      <path
         d="m 8687.87,864.684 h 60.1 v -189.7 h 94.26 v -50.652 h -154.36 v 240.352"
         style="fill:#4f4c4c;fill-opacity:1;fill-rule:nonzero;stroke:none"
         id="path58" />
      <path
         d="m 9013.51,804.176 c -10.24,10.879 -25.94,17.676 -42.34,17.676 -36.54,0 -59.76,-31.965 -59.76,-75.481 0,-57.109 32.1,-78.183 60.44,-78.183 28.69,0 59.43,20.39 61.13,70.714 1.02,25.157 -5.8,50.653 -19.47,65.274 z m -41.66,-186.653 c -76.49,0 -119.86,58.477 -119.86,127.832 0,64.934 41.32,126.465 118.84,126.465 14.34,0 29.36,-2.039 44.05,-7.136 73.76,-25.5 78.55,-105.391 78.55,-121.711 0,-41.473 -19.12,-78.868 -45.77,-100.282 -23.56,-19.386 -50.87,-25.168 -75.81,-25.168"
         style="fill:#4f4c4c;fill-opacity:1;fill-rule:nonzero;stroke:none"
         id="path60" />
      <path
         d="m 9294.54,646.762 c -9.9,-9.18 -30.39,-27.871 -71.03,-27.871 -67.27,0 -108.59,54.394 -108.59,125.109 0,77.168 50.2,128.504 118.84,128.504 63.86,0 94.93,-40.801 106.2,-55.418 l -45.76,-27.531 c -8.54,12.91 -22.54,33.996 -56.01,33.996 -45.76,0 -63.17,-37.735 -63.17,-77.852 0,-27.199 7.51,-49.297 19.12,-61.191 9.22,-9.863 25.61,-17.344 44.05,-17.344 10.93,0 23.22,2.723 33.13,9.18 15.71,10.195 17.76,23.113 19.46,35.691 h -53.96 v 45.559 h 104.85 V 624.332 h -47.13 v 22.43"
         style="fill:#4f4c4c;fill-opacity:1;fill-rule:nonzero;stroke:none"
         id="path62" />
      <path
         d="m 9340.48,864.34 h 69.32 l 51.91,-82.266 c 3.07,6.797 3.76,8.156 9.9,18.02 l 41.32,64.246 h 68.64 L 9490.39,737.875 V 624.332 h -59.41 v 111.844 l -90.5,128.164"
         style="fill:#4f4c4c;fill-opacity:1;fill-rule:nonzero;stroke:none"
         id="path64" />
      <path
         d="m 6258.49,497.23 c -3.07,-12.242 -6.48,-24.808 -9.9,-37.058 -5.12,-18.024 -14.34,-46.231 -19.8,-64.25 h 61.12 z m 32.45,57.11 88.79,-240.012 h -64.2 l -11.96,38.422 h -88.79 l -11.95,-38.422 h -64.2 l 89.47,240.012 h 62.84"
         style="fill:#4f4c4c;fill-opacity:1;fill-rule:nonzero;stroke:none"
         id="path66" />
      <path
         d="m 6397.93,554.34 h 59.08 l 52.25,-88.391 c 19.12,-33.648 24.93,-44.527 36.2,-65.609 l -2.74,154 h 57.72 V 314.328 h -59.08 l -45.08,75.813 c -21.85,35.691 -25.95,43.179 -42.34,75.129 l 1.7,-150.942 h -57.71 V 554.34"
         style="fill:#4f4c4c;fill-opacity:1;fill-rule:nonzero;stroke:none"
         id="path68" />
      <path
         d="M 6704.16,503.691 V 362.602 h 18.44 c 32.1,0.687 76.49,2.386 76.49,71.398 0,16.66 -1.71,33.309 -12.64,48.27 -16.38,21.761 -39.61,21.421 -58.05,21.421 z m -60.79,50.649 h 76.83 c 29.37,-0.332 73.76,-1.016 104.51,-28.211 24.92,-22.438 34.48,-56.098 34.48,-89.758 0,-20.73 -3.07,-36.031 -6.14,-46.23 -22.2,-74.11 -89.48,-75.469 -114.75,-75.813 h -94.93 V 554.34"
         style="fill:#4f4c4c;fill-opacity:1;fill-rule:nonzero;stroke:none"
         id="path70" />
      <path
         d="m 6973.26,554.34 h 59.08 l 52.25,-88.391 c 19.12,-33.648 24.93,-44.527 36.2,-65.609 l -2.73,154 h 57.71 V 314.328 h -59.08 l -45.08,75.813 c -21.86,35.691 -25.95,43.179 -42.34,75.129 l 1.71,-150.942 h -57.72 V 554.34"
         style="fill:#4f4c4c;fill-opacity:1;fill-rule:nonzero;stroke:none"
         id="path72" />
      <path
         d="m 7313.67,497.23 c -3.08,-12.242 -6.49,-24.808 -9.9,-37.058 -5.13,-18.024 -14.35,-46.231 -19.81,-64.25 h 61.13 z m 32.44,57.11 88.79,-240.012 h -64.2 l -11.95,38.422 h -88.79 l -11.95,-38.422 h -64.2 l 89.47,240.012 h 62.83"
         style="fill:#4f4c4c;fill-opacity:1;fill-rule:nonzero;stroke:none"
         id="path74" />
      <path
         d="m 7453.1,554.34 h 59.09 l 52.24,-88.391 c 19.12,-33.648 24.93,-44.527 36.2,-65.609 l -2.73,154 h 57.71 V 314.328 h -59.08 l -45.08,75.813 c -21.85,35.691 -25.94,43.179 -42.34,75.129 l 1.71,-150.942 H 7453.1 V 554.34"
         style="fill:#4f4c4c;fill-opacity:1;fill-rule:nonzero;stroke:none"
         id="path76" />
      <path
         d="m 7849.55,494.172 c -10.24,10.879 -25.96,17.68 -42.34,17.68 -36.55,0 -59.77,-31.961 -59.77,-75.481 0,-57.109 32.1,-78.18 60.44,-78.18 28.69,0 59.42,20.391 61.13,70.707 1.03,25.161 -5.81,50.661 -19.46,65.274 z M 7807.88,307.52 c -76.49,0 -119.86,58.48 -119.86,127.839 0,64.93 41.32,126.461 118.84,126.461 14.34,0 29.37,-2.039 44.06,-7.136 73.76,-25.5 78.53,-105.395 78.53,-121.715 0,-41.469 -19.12,-78.86 -45.75,-100.278 -23.56,-19.382 -50.89,-25.171 -75.82,-25.171"
         style="fill:#4f4c4c;fill-opacity:1;fill-rule:nonzero;stroke:none"
         id="path78" />
      <path
         d="m 7984.03,386.398 c 6.15,-6.796 11.27,-12.238 23.22,-18.699 16.06,-8.5 32.45,-11.551 46.45,-11.551 23.91,0 44.39,11.211 44.39,27.872 0,19.039 -24.24,22.101 -42,24.48 -13.32,1.699 -26.64,3.398 -39.62,6.109 -14.67,3.071 -64.88,13.61 -64.88,65.282 0,61.871 55.32,80.23 96.98,80.23 55.67,0 85.73,-26.855 106.56,-45.551 l -44.4,-31.621 c -7.52,7.481 -14.34,13.942 -23.91,19.383 -8.53,4.746 -23.9,10.539 -39.27,10.539 -23.9,0 -35.85,-13.601 -35.85,-25.16 0,-18.359 20.49,-21.07 30.73,-22.441 25.62,-3.059 60.1,-9.508 73.76,-14.282 27.67,-10.187 41.66,-31.609 41.66,-58.808 0,-17.34 -6.48,-36.371 -19.12,-50.989 -21.86,-25.16 -56.69,-32.3 -90.5,-32.3 -67.95,0 -94.93,31.269 -109.96,48.609 l 45.76,28.898"
         style="fill:#4f4c4c;fill-opacity:1;fill-rule:nonzero;stroke:none"
         id="path80" />
      <path
         d="m 8395.09,369.07 c -8.88,-13.949 -17.42,-27.539 -36.54,-40.8 -10.24,-7.141 -33.81,-21.079 -67.27,-21.079 -63.86,0 -115.42,46.231 -115.42,127.481 0,71.058 48.48,127.148 116.79,127.148 27.65,0 52.24,-9.519 70.34,-23.797 16.74,-13.253 24.59,-26.511 31.42,-38.414 L 8346.6,475.82 c -3.42,7.809 -7.51,15.969 -18.1,24.809 -11.61,9.18 -23.22,11.891 -33.12,11.891 -38.94,0 -59.42,-36.032 -59.42,-76.149 0,-52.691 26.98,-78.871 59.42,-78.871 31.42,0 44.05,21.762 52.25,35.699 l 47.46,-24.129"
         style="fill:#4f4c4c;fill-opacity:1;fill-rule:nonzero;stroke:none"
         id="path82" />
      <path
         d="M 8477.57,554.34 V 314.328 h -60.1 V 554.34 h 60.1"
         style="fill:#4f4c4c;fill-opacity:1;fill-rule:nonzero;stroke:none"
         id="path84" />
      <path
         d="m 8520.26,554.34 h 178.25 v -46.57 h -118.15 v -43.52 h 110.3 v -45.551 h -110.3 V 361.59 H 8709.1 V 314.328 H 8520.26 V 554.34"
         style="fill:#4f4c4c;fill-opacity:1;fill-rule:nonzero;stroke:none"
         id="path86" />
      <path
         d="m 8739.06,554.34 h 59.07 l 52.25,-88.391 c 19.13,-33.648 24.93,-44.527 36.2,-65.609 l -2.73,154 h 57.71 V 314.328 h -59.07 l -45.08,75.813 c -21.85,35.691 -25.96,43.179 -42.34,75.129 l 1.7,-150.942 h -57.71 V 554.34"
         style="fill:#4f4c4c;fill-opacity:1;fill-rule:nonzero;stroke:none"
         id="path88" />
      <path
         d="m 9192.73,369.07 c -8.87,-13.949 -17.41,-27.539 -36.53,-40.8 -10.24,-7.141 -33.81,-21.079 -67.28,-21.079 -63.85,0 -115.42,46.231 -115.42,127.481 0,71.058 48.49,127.148 116.79,127.148 27.66,0 52.25,-9.519 70.34,-23.797 16.74,-13.253 24.59,-26.511 31.43,-38.414 l -47.81,-23.789 c -3.42,7.809 -7.51,15.969 -18.1,24.809 -11.61,9.18 -23.22,11.891 -33.12,11.891 -38.94,0 -59.43,-36.032 -59.43,-76.149 0,-52.691 26.98,-78.871 59.43,-78.871 31.41,0 44.05,21.762 52.24,35.699 l 47.46,-24.129"
         style="fill:#4f4c4c;fill-opacity:1;fill-rule:nonzero;stroke:none"
         id="path90" />
      <path
         d="m 9214.56,554.34 h 178.26 v -46.57 h -118.15 v -43.52 h 110.3 v -45.551 h -110.3 V 361.59 h 128.74 V 314.328 H 9214.56 V 554.34"
         style="fill:#4f4c4c;fill-opacity:1;fill-rule:nonzero;stroke:none"
         id="path92" />
      <path
         d="M 5848.67,1411.27 V 103.75"
         style="fill:none;stroke:#4f4c4c;stroke-width:20;stroke-linecap:butt;stroke-linejoin:miter;stroke-miterlimit:10;stroke-dasharray:none;stroke-opacity:1"
         id="path94" />
      <path
         d="M 777.531,907.563 C 767.266,872.027 754.609,830.895 704.805,784.117 659.73,742.145 585.355,694.508 443.02,694.508 c -198.5,0 -336.106,105.711 -336.106,305.066 0,214.646 167.637,301.806 344.031,301.806 64.063,0 232.285,-15.35 306.45,-151.96 l -139.582,-44.96 c -15.047,24.22 -59.504,87.02 -167.872,87.02 -126.523,0 -197.511,-84.6 -197.511,-193.554 0,-124.25 96.496,-190.449 202.48,-190.449 120.981,0 157.36,64.55 175.52,99.277 l 147.101,0.809 v 0"
         style="fill:#231f20;fill-opacity:1;fill-rule:nonzero;stroke:none"
         id="path96" />
      <path
         d="m 838.68,1283.6 h 139.965 v -219.47 h 330.675 v 219.47 h 139.99 V 713.871 H 1309.32 V 958.383 H 978.645 V 713.871 H 838.68 v 569.729 0"
         style="fill:#231f20;fill-opacity:1;fill-rule:nonzero;stroke:none"
         id="path98" />
      <path
         d="m 1874.12,1108.5 c -3.96,7.23 -7.11,15.35 -9.5,22.61 -2.38,7.25 -3.95,14.51 -4.76,22.58 -2.34,-7.26 -3.93,-13.73 -5.51,-20.15 -3.15,-7.29 -5.53,-14.54 -8.72,-21.8 l -77.91,-172.537 h 180.26 l -73.86,169.297 z m -88.56,175.1 h 151.05 l 269.67,-569.729 h -156.6 l -55.34,124.445 H 1722.4 l -53.91,-124.445 h -152.66 l 269.73,569.729 v 0"
         style="fill:#231f20;fill-opacity:1;fill-rule:nonzero;stroke:none"
         id="path100" />
      <path
         d="m 2278.23,1283.6 h 140.02 V 818.785 h 281.97 V 713.871 h -421.99 v 569.729 0"
         style="fill:#231f20;fill-opacity:1;fill-rule:nonzero;stroke:none"
         id="path102" />
      <path
         d="m 2784.45,1283.6 h 201.67 l 145.51,-348.577 c 15.07,-37.148 20.6,-52.468 28.47,-84.765 5.53,24.199 10.27,38.711 26.12,78.32 l 145.52,355.022 h 200.05 V 713.902 h -132.06 v 398.648 c 0,16.92 2.39,31.45 5.55,53.25 -5.55,-16.94 -7.9,-23.41 -15.83,-43.57 L 3222.62,713.902 H 3095.24 L 2928.4,1114.16 c -8.68,21.8 -10.27,28.23 -16.6,51.64 2.37,-24.19 3.15,-29.06 4.71,-50.85 V 713.902 h -132.06 v 569.698 0"
         style="fill:#231f20;fill-opacity:1;fill-rule:nonzero;stroke:none"
         id="path104" />
      <path
         d="m 3661.25,1283.6 h 520.36 v -102.45 h -380.36 v -128.32 h 334.98 V 951.957 H 3801.25 V 815.57 h 396.19 V 713.902 h -536.19 v 569.698 0"
         style="fill:#231f20;fill-opacity:1;fill-rule:nonzero;stroke:none"
         id="path106" />
      <path
         d="m 5067.44,887.602 c 32.76,-68.036 113.03,-87.579 188.94,-86.211 33.99,0.586 140.65,8.125 139.48,77.511 -0.72,41.161 -39.63,50.176 -69.77,55.254 -23.05,4.442 -137.98,20.176 -164.15,24.532 -51.58,8.769 -181.63,31.453 -183.87,160.552 -0.5,28.26 6.92,57.44 20.77,81.11 45.27,77.48 147.8,99.47 236.38,101.03 81.39,1.45 144.07,-9.52 202.34,-40.78 57.49,-30.44 82.72,-71.94 94.05,-90.3 l -132.29,-36.26 c -4.85,8.79 -16.24,29.56 -49.79,45.91 -37.45,17.92 -85.73,20.29 -112.57,19.76 -61.68,-1.06 -124.76,-14.32 -123.87,-68.35 0.67,-37.15 33.27,-46.25 75.3,-55.15 23,-4.47 137.2,-21.79 163.38,-26.99 65.08,-10.9 175.38,-33.15 177.55,-158.24 3.13,-183.132 -197.98,-193.515 -279.53,-194.656 -91.76,-1.289 -234.6,11.992 -309.06,155.106 l 126.71,36.172 v 0"
         style="fill:#231f20;fill-opacity:1;fill-rule:nonzero;stroke:none"
         id="path108" />
      <path
         d="m 4442.5,1043.62 h 223 c 30.08,0 83.83,4.01 83.83,67.75 0,11.31 -1.62,30.68 -11.05,44.41 -10.27,13.73 -23.72,27.44 -79.09,27.44 H 4442.5 v -139.6 z m -139.99,239.68 h 384.36 c 63.25,0 120.96,-5.67 167.63,-60.54 28.52,-33.88 36.39,-76.66 36.39,-109.74 0,-43.59 -14.24,-95.25 -53.76,-125.895 -30.03,-23.41 -68.82,-31.504 -90.98,-35.5 L 4915.39,713.57 h -160.7 L 4601.47,942.75 H 4442.5 V 713.57 h -139.99 v 569.73 0"
         style="fill:#231f20;fill-opacity:1;fill-rule:nonzero;stroke:none"
         id="path110" />
      <path
         d="M 400.906,447.172 V 325.191 c -0.308,-21.043 -0.613,-42.089 -12.449,-61.902 -23.062,-37.789 -70.719,-39.629 -79.82,-39.629 -16.09,0 -35.207,4.02 -49.77,11.75 -41.281,21.68 -41.281,60.051 -40.972,89.781 v 121.981 h 54.019 V 310.949 c 0,-11.129 0.305,-20.429 3.945,-27.23 6.672,-11.481 21.239,-14.879 34.594,-14.879 36.422,0 36.422,25.398 36.727,42.422 v 135.91 h 53.726"
         style="fill:#231f20;fill-opacity:1;fill-rule:nonzero;stroke:none"
         id="path112" />
      <path
         d="m 480.684,447.172 h 52.507 l 46.442,-80.492 c 16.996,-30.629 22.148,-40.539 32.164,-59.739 l -2.43,140.231 h 51.301 v -218.57 h -52.516 l -40.062,69.039 c -19.418,32.507 -23.067,39.328 -37.633,68.429 l 1.523,-137.468 h -51.296 v 218.57"
         style="fill:#231f20;fill-opacity:1;fill-rule:nonzero;stroke:none"
         id="path114" />
      <path
         d="m 795.41,447.172 v -218.57 h -53.418 v 218.57 h 53.418"
         style="fill:#231f20;fill-opacity:1;fill-rule:nonzero;stroke:none"
         id="path116" />
      <path
         d="m 989.012,447.172 h 57.068 l -74.357,-218.57 h -54.629 l -73.461,218.57 h 57.058 l 44.321,-155.422 44,155.422"
         style="fill:#231f20;fill-opacity:1;fill-rule:nonzero;stroke:none"
         id="path118" />
      <path
         d="m 1094.32,447.172 h 158.43 v -42.41 h -105.01 v -39.641 h 98.03 V 323.66 h -98.03 v -52.019 h 114.43 v -43.039 h -167.85 v 218.57"
         style="fill:#231f20;fill-opacity:1;fill-rule:nonzero;stroke:none"
         id="path120" />
      <path
         d="m 1383.87,406.32 v -59.14 h 44.31 c 7.58,0.308 32.17,0.922 32.17,30.031 0,27.848 -19.74,28.801 -30.97,29.109 z m -53.73,40.852 h 96.52 c 22.45,-0.301 50.37,-0.602 70.11,-22.293 10.02,-11.449 16.99,-28.77 16.99,-48.59 0,-43.98 -29.44,-54.809 -44.01,-60.398 l 49.47,-87.289 h -59.18 l -42.49,78.027 h -33.68 v -78.027 h -53.73 v 218.57"
         style="fill:#231f20;fill-opacity:1;fill-rule:nonzero;stroke:none"
         id="path122" />
      <path
         d="m 1608.12,294.238 c 5.47,-6.199 10.02,-11.136 20.64,-17.027 14.26,-7.75 28.83,-10.52 41.28,-10.52 21.25,0 39.46,10.219 39.46,25.379 0,17.321 -21.54,20.11 -37.34,22.289 -11.83,1.532 -23.67,3.102 -35.19,5.59 -13.06,2.781 -57.67,12.36 -57.67,59.442 0,56.347 49.16,73.07 86.19,73.07 49.47,0 76.18,-24.492 94.69,-41.512 l -39.46,-28.777 c -6.67,6.816 -12.74,12.68 -21.24,17.648 -7.59,4.328 -21.23,9.602 -34.9,9.602 -21.25,0 -31.87,-12.391 -31.87,-22.91 0,-16.723 18.21,-19.211 27.31,-20.442 22.77,-2.781 53.42,-8.672 65.56,-13 24.58,-9.3 37.03,-28.8 37.03,-53.582 0,-15.769 -5.76,-33.129 -16.99,-46.449 -19.42,-22.91 -50.38,-29.379 -80.44,-29.379 -60.39,0 -84.37,28.461 -97.72,44.262 l 40.66,26.316"
         style="fill:#231f20;fill-opacity:1;fill-rule:nonzero;stroke:none"
         id="path124" />
      <path
         d="m 1887.34,447.172 v -218.57 h -53.42 v 218.57 h 53.42"
         style="fill:#231f20;fill-opacity:1;fill-rule:nonzero;stroke:none"
         id="path126" />
      <path
         d="m 1938.01,447.488 h 165.1 v -43.34 h -55.53 V 228.602 h -53.73 v 175.546 h -55.84 v 43.34"
         style="fill:#231f20;fill-opacity:1;fill-rule:nonzero;stroke:none"
         id="path128" />
      <path
         d="m 2134.35,447.172 h 61.63 l 46.13,-74.934 c 2.74,6.203 3.34,7.453 8.79,16.422 l 36.73,58.512 h 61.01 L 2267.61,332 V 228.602 h -52.82 v 101.859 l -80.44,116.711"
         style="fill:#231f20;fill-opacity:1;fill-rule:nonzero;stroke:none"
         id="path130" />
      <path
         d="m 2641.81,392.391 c -9.1,9.91 -23.07,16.078 -37.64,16.078 -32.47,0 -53.11,-29.078 -53.11,-68.719 0,-52.02 28.52,-71.211 53.72,-71.211 25.5,0 52.81,18.582 54.33,64.402 0.91,22.918 -5.16,46.141 -17.3,59.45 z m -37.03,-169.993 c -67.98,0 -106.52,53.25 -106.52,116.403 0,59.14 36.71,115.187 105.61,115.187 12.75,0 26.1,-1.847 39.15,-6.5 65.56,-23.226 69.82,-95.976 69.82,-110.828 0,-37.789 -17,-71.84 -40.68,-91.34 -20.94,-17.64 -45.22,-22.922 -67.38,-22.922"
         style="fill:#231f20;fill-opacity:1;fill-rule:nonzero;stroke:none"
         id="path132" />
      <path
         d="m 2938,447.172 v -42.113 h -111.06 v -45.797 h 102.3 V 316.84 h -102.3 v -88.238 h -53.42 v 218.57 H 2938"
         style="fill:#231f20;fill-opacity:1;fill-rule:nonzero;stroke:none"
         id="path134" />
      <path
         d="m 3081.84,447.488 h 165.11 v -43.34 h -55.54 V 228.602 h -53.69 v 175.546 h -55.88 v 43.34"
         style="fill:#231f20;fill-opacity:1;fill-rule:nonzero;stroke:none"
         id="path136" />
      <path
         d="m 3298.25,447.172 h 158.41 v -42.41 h -105 v -39.641 h 98.02 V 323.66 h -98.02 v -52.019 h 114.43 v -43.039 h -167.84 v 218.57"
         style="fill:#231f20;fill-opacity:1;fill-rule:nonzero;stroke:none"
         id="path138" />
      <path
         d="m 3714.03,278.441 c -7.87,-12.691 -15.46,-25.089 -32.48,-37.152 -9.1,-6.5 -30.03,-19.199 -59.78,-19.199 -56.77,0 -102.6,42.109 -102.6,116.109 0,64.711 43.09,115.789 103.82,115.789 24.56,0 46.44,-8.648 62.52,-21.656 14.9,-12.082 21.88,-24.172 27.91,-35 l -42.48,-21.652 c -3.02,7.109 -6.7,14.539 -16.07,22.582 -10.33,8.367 -20.66,10.847 -29.48,10.847 -34.55,0 -52.8,-32.82 -52.8,-69.359 0,-48 24,-71.828 52.8,-71.828 27.97,0 39.18,19.808 46.44,32.508 l 42.2,-21.989"
         style="fill:#231f20;fill-opacity:1;fill-rule:nonzero;stroke:none"
         id="path140" />
      <path
         d="m 3950.14,447.172 v -218.57 h -53.7 v 93.179 h -78.31 v -93.179 h -54.03 v 218.57 h 54.03 V 368.23 h 78.31 v 78.942 h 53.7"
         style="fill:#231f20;fill-opacity:1;fill-rule:nonzero;stroke:none"
         id="path142" />
      <path
         d="m 4031.46,447.172 h 52.53 l 46.44,-80.492 c 16.97,-30.629 22.16,-40.539 32.15,-59.739 l -2.4,140.231 h 51.3 v -218.57 h -52.53 l -40.07,69.039 c -19.43,32.507 -23.06,39.328 -37.63,68.429 l 1.51,-137.468 h -51.3 v 218.57"
         style="fill:#231f20;fill-opacity:1;fill-rule:nonzero;stroke:none"
         id="path144" />
      <path
         d="m 4422.36,392.391 c -9.1,9.91 -23.06,16.078 -37.62,16.078 -32.5,0 -53.14,-29.078 -53.14,-68.719 0,-52.02 28.52,-71.211 53.75,-71.211 25.45,0 52.8,18.582 54.31,64.402 0.89,22.918 -5.13,46.141 -17.3,59.45 z m -37.01,-169.993 c -67.99,0 -106.56,53.25 -106.56,116.403 0,59.14 36.73,115.187 105.61,115.187 12.78,0 26.12,-1.847 39.18,-6.5 65.53,-23.226 69.77,-95.976 69.77,-110.828 0,-37.789 -16.96,-71.84 -40.63,-91.34 -20.93,-17.64 -45.22,-22.922 -67.37,-22.922"
         style="fill:#231f20;fill-opacity:1;fill-rule:nonzero;stroke:none"
         id="path146" />
      <path
         d="m 4554.36,447.488 h 53.42 V 274.73 h 83.78 v -46.128 h -137.2 v 218.886"
         style="fill:#231f20;fill-opacity:1;fill-rule:nonzero;stroke:none"
         id="path148" />
      <path
         d="m 4875.81,392.391 c -9.09,9.91 -23.05,16.078 -37.61,16.078 -32.49,0 -53.14,-29.078 -53.14,-68.719 0,-52.02 28.52,-71.211 53.75,-71.211 25.45,0 52.8,18.582 54.31,64.402 0.89,22.918 -5.14,46.141 -17.31,59.45 z m -37,-169.993 c -67.99,0 -106.56,53.25 -106.56,116.403 0,59.14 36.73,115.187 105.61,115.187 12.78,0 26.12,-1.847 39.18,-6.5 65.53,-23.226 69.78,-95.976 69.78,-110.828 0,-37.789 -16.97,-71.84 -40.64,-91.34 -20.93,-17.64 -45.21,-22.922 -67.37,-22.922"
         style="fill:#231f20;fill-opacity:1;fill-rule:nonzero;stroke:none"
         id="path150" />
      <path
         d="m 5158.98,249.031 c -8.82,-8.351 -27.02,-25.371 -63.13,-25.371 -59.78,0 -96.51,49.512 -96.51,113.922 0,70.277 44.6,117.02 105.61,117.02 56.76,0 84.39,-37.141 94.38,-50.454 l -40.69,-25.066 c -7.53,11.75 -19.98,30.949 -49.73,30.949 -40.69,0 -56.15,-34.351 -56.15,-70.91 0,-24.762 6.64,-44.883 16.97,-55.711 8.2,-8.988 22.77,-15.801 39.18,-15.801 9.71,0 20.6,2.481 29.41,8.352 13.96,9.289 15.8,21.07 17.31,32.508 h -47.95 v 41.511 h 93.16 V 228.602 h -41.86 v 20.429"
         style="fill:#231f20;fill-opacity:1;fill-rule:nonzero;stroke:none"
         id="path152" />
      <path
         d="m 5230.36,447.172 h 61.63 l 46.1,-74.934 c 2.74,6.203 3.35,7.453 8.82,16.422 l 36.73,58.512 h 61.01 L 5363.6,332 V 228.602 h -52.8 v 101.859 l -80.44,116.711"
         style="fill:#231f20;fill-opacity:1;fill-rule:nonzero;stroke:none"
         id="path154" />
    </g>
  </g>
</svg>
