<?xml version="1.0" encoding="UTF-8" standalone="no"?>
<!-- Created with Inkscape (http://www.inkscape.org/) -->

<svg
   version="1.1"
   id="svg2"
   width="1699.2267"
   height="464.01334"
   viewBox="0 0 1699.2267 464.01334"
   sodipodi:docname="NEIC_logo_print_black.eps"
   xmlns:inkscape="http://www.inkscape.org/namespaces/inkscape"
   xmlns:sodipodi="http://sodipodi.sourceforge.net/DTD/sodipodi-0.dtd"
   xmlns="http://www.w3.org/2000/svg"
   xmlns:svg="http://www.w3.org/2000/svg">
  <defs
     id="defs6" />
  <sodipodi:namedview
     id="namedview4"
     pagecolor="#ffffff"
     bordercolor="#000000"
     borderopacity="0.25"
     inkscape:showpageshadow="2"
     inkscape:pageopacity="0.0"
     inkscape:pagecheckerboard="0"
     inkscape:deskcolor="#d1d1d1" />
  <g
     id="g8"
     inkscape:groupmode="layer"
     inkscape:label="ink_ext_XXXXXX"
     transform="matrix(1.3333333,0,0,-1.3333333,0,464.01333)">
    <g
       id="g10"
       transform="scale(0.1)">
      <path
         d="M 2617.6,2354.23 1592.16,3379.68 c -129.41,129.43 -340.03,129.43 -469.47,0 L 97.2344,2354.23 C 34.5352,2291.53 0,2208.16 0,2119.49 0,2030.82 34.5352,1945.94 97.2344,1883.25 L 1122.69,856.281 h 0.01 c 64.71,-60.23 149.71,-95.543 234.72,-95.543 85,0 170.02,33.102 234.74,97.813 l -234.6,234.969 c 0,0 -0.05,0.22 -0.15,0.33 L 331.953,2119.42 1357.43,3144.91 2382.88,2119.45 l -420.34,-420.43 234.67,-234.67 420.39,420.4 c 62.7,62.69 97.23,146.07 97.23,234.74 0,88.67 -34.53,172.04 -97.23,234.74"
         style="fill:#231f20;fill-opacity:1;fill-rule:nonzero;stroke:none"
         id="path12" />
      <path
         d="M 3531.04,2354.23 2505.59,3379.68 c -129.41,129.43 -340.02,129.43 -469.47,0 L 2270.87,3144.96 3296.32,2119.48 2271,1093.9 c 0,0 -0.06,0.03 -0.16,0.14 l -1025.45,1025.47 418.67,418.66 -234.72,234.72 -418.67,-418.66 c -62.701,-62.7 -97.232,-146.07 -97.232,-234.74 0,-88.67 34.531,-173.55 97.232,-236.24 L 2036.12,856.281 h 0.01 c 64.71,-60.23 149.72,-95.543 234.72,-95.543 85.01,0 170.02,33.102 234.74,97.813 L 3531.04,1884.38 c 62.7,62.69 97.23,146.25 97.23,234.92 0,88.68 -34.53,172.23 -97.23,234.93"
         style="fill:#231f20;fill-opacity:1;fill-rule:nonzero;stroke:none"
         id="path14" />
      <path
         d="m 5254.17,3480.04 c -1.75,0 -3.53,0 -5.29,0 -278.4,0 -539.59,-110.7 -735.47,-308.54 -195.87,-197.85 -302.99,-459.92 -301.6,-737.61 l 1.17,-1493.558 c 0.07,-94.711 76.85,-180.293 171.53,-180.293 0.04,0 0.1,0 0.14,0 94.73,0 171.46,85.91 171.39,180.652 l -1.17,1486.029 c -1.93,385.56 310.18,703.33 695.73,703.33 1.2,0 2.34,0 3.54,0 383.91,0 697.95,-303.62 697.95,-687.12 V 932.469 c 0,-94.727 75.26,-171.528 170,-171.528 94.73,0 170,76.801 170,171.528 V 2443.79 c 0,572.96 -465.61,1036.25 -1037.92,1036.25"
         style="fill:#231f20;fill-opacity:1;fill-rule:nonzero;stroke:none"
         id="path16" />
      <path
         d="m 9817.69,3480.04 c -0.1,0 -0.21,0 -0.31,0 -94.74,0 -171.4,-77.09 -171.22,-171.83 l 4.34,-2369.46 c 0.18,-94.641 76.94,-178.711 171.53,-178.711 0.1,0 0.21,0 0.31,0 94.74,0 171.4,84.609 171.22,179.332 l -4.34,2365.729 c -0.18,94.63 -76.94,174.94 -171.53,174.94"
         style="fill:#231f20;fill-opacity:1;fill-rule:nonzero;stroke:none"
         id="path18" />
      <path
         d="m 12603.7,1690.84 c -92.9,16.95 -164.6,-49.87 -199.2,-137.69 -42.8,-108.36 -104.6,-204.57 -222.9,-299.36 -126.4,-101.27 -288.7,-153.21 -452,-153.21 -93.5,0 -185.4,18.13 -273.2,53.9 -85.5,34.84 -162.7,84.55 -229.6,147.74 -137.1,129.59 -213.2,299.66 -214.2,478.86 l -0.8,338.01 0.8,338.01 c 1,179.54 77.1,349.96 214.3,479.88 66.9,63.31 144.1,112.99 229.4,147.68 87.5,35.57 179.2,53.36 272.4,52.96 159,-0.8 313.6,-48.49 437.3,-139.03 116,-85.01 197.5,-196.21 231.5,-287.75 28.6,-77.05 74.3,-139.11 161.7,-135.91 11.8,0.43 23.7,1.23 35.7,3.77 44.7,9.51 83.1,35.87 108,74.24 24.9,38.36 33.4,84.12 23.9,128.86 -41.7,196.01 -170.6,375.5 -362.9,505.39 -182.5,123.26 -407.5,191.76 -633.5,192.89 -1.8,0.01 -3.6,0.01 -5.4,0.01 -136.3,0 -270,-26.29 -397.7,-78.18 -124.9,-50.78 -237.9,-123.54 -335.8,-216.25 -99.1,-93.8 -177.4,-202.95 -232.6,-324.42 -58.2,-127.84 -88,-263.33 -88.7,-402.7 l -0.5,-208.68 c -0.4,-5.19 -0.6,-9.87 -0.6,-14.29 l 0.3,-116.55 -0.3,-116.4 c 0,-4.42 0.2,-9.08 0.6,-14.06 l 0.5,-208.48 v -0.43 c 0.7,-139.38 30.5,-274.79 88.7,-402.47 55.3,-121.24 133.6,-230.2 232.7,-323.88 97.8,-92.402 210.7,-165.062 335.6,-215.96 129,-52.57 264.3,-79.219 402.4,-79.219 235.3,0 469.1,75.981 658.2,213.961 91.4,66.728 168.3,144.628 228.3,231.538 64,92.55 106.8,186.79 125.3,288.01 16.9,92.89 -44.8,182.25 -137.7,199.21"
         style="fill:#231f20;fill-opacity:1;fill-rule:nonzero;stroke:none"
         id="path20" />
      <path
         d="m 7193.73,2431.92 c -1.92,384.86 309.63,697.17 694.49,697.17 1.19,0 2.33,0 3.52,0 343.02,0 629.6,-243.26 687.33,-570.63 L 7194.59,2071.25 Z m 1610.59,-741.03 c -92.88,16.95 -164.55,-49.87 -199.2,-137.69 -42.77,-108.36 -104.57,-204.57 -222.89,-299.36 -22.33,-17.88 -45.8,-34.2 -70.17,-48.99 -25.11,-14.38 -51.36,-27.54 -78.62,-39.27 -93.4,-40.18 -198.51,-63.81 -308.47,-63.81 -219.21,0 -376.97,92.31 -513.48,216.39 -117.52,106.83 -190.21,245 -209.73,395.22 l 1730.96,612.72 -0.6,121.67 c -1.39,277.91 -110.91,535.68 -308.41,731.21 -196.24,194.29 -455.93,298.11 -731.87,298.11 -1.76,0 -3.58,0 -5.34,0 -573.69,0 -1038.08,-468.98 -1035.22,-1042.22 l 1.17,-489.22 c 0.01,-4.81 -0.39,-155.31 -0.39,-155.31 1.39,-277.52 119.39,-544.26 329.09,-734.87 200.77,-182.501 463.28,-291.74 739.8,-291.74 1.89,0 3.83,0 5.74,0 228.05,0 447.97,66.102 622.24,179.442 47.93,31.168 91.55,66.368 131.52,104.438 52,47.91 97.65,100.1 136.32,156.06 63.96,92.55 106.75,186.79 125.24,288.01 16.96,92.88 -44.81,182.25 -137.69,199.21"
         style="fill:#231f20;fill-opacity:1;fill-rule:nonzero;stroke:none"
         id="path22" />
      <path
         d="M 110.719,4.78125 V 300.031 h 43.48 C 232.031,103.488 243.34,75.2188 247.254,61.7422 h 0.434 c -2.172,39.1368 -2.61,83.4878 -2.61,131.3168 v 106.972 h 33.481 V 4.78125 H 236.816 C 156.375,211.762 145.504,239.59 142.023,251.332 h -0.433 c 2.172,-36.531 2.609,-83.922 2.609,-136.973 V 4.78125 h -33.48"
         style="fill:#231f20;fill-opacity:1;fill-rule:nonzero;stroke:none"
         id="path24" />
      <path
         d="m 522.941,155.23 c 0,-81.3081 16.09,-123.9214 51.309,-123.9214 36.961,0 51.309,40.8711 51.309,123.4924 0,82.609 -15.653,117.828 -51.309,117.828 -35.219,0 -51.309,-40 -51.309,-117.399 z m 140.012,-0.429 c 0,-101.7502 -24.785,-154.371312 -89.57,-154.371312 -61.313,0 -87.836,50.878912 -87.836,153.929312 0,101.75 30.871,150.02 89.574,150.02 61.742,0 87.832,-49.137 87.832,-149.578"
         style="fill:#231f20;fill-opacity:1;fill-rule:nonzero;stroke:none"
         id="path26" />
      <path
         d="m 906.027,169.148 h 35.223 c 35.223,0 48.266,19.133 48.266,52.614 0,28.699 -13.043,47.828 -44.786,47.828 h -38.703 z m 0,-30.437 V 4.78125 H 869.938 V 300.031 h 79.574 c 50.004,0 76.968,-28.269 76.968,-76.972 0,-43.911 -21.75,-62.61 -39.14,-68.7 26.53,-10 35.22,-33.48 35.22,-75.2184 V 67.3984 c 0,-28.6992 1.31,-46.5273 4.35,-62.61715 h -36.09 c -3.914,13.48045 -4.347,39.14065 -4.347,63.48825 v 10 c 0,41.7425 -8.696,60.4415 -47.395,60.4415 h -33.051"
         style="fill:#231f20;fill-opacity:1;fill-rule:nonzero;stroke:none"
         id="path28" />
      <path
         d="m 1269.99,35.2188 h 25.22 c 51.74,0 68.26,40.871 68.26,123.4922 0,76.531 -18.69,110.008 -67.83,110.008 h -25.65 z m -36.53,264.8122 h 67.83 c 69.58,0 99.58,-47.832 99.58,-140.449 0,-100.0117 -27.83,-154.80075 -104.36,-154.80075 h -63.05 V 300.031"
         style="fill:#231f20;fill-opacity:1;fill-rule:nonzero;stroke:none"
         id="path30" />
      <path
         d="M 1644.38,300.031 V 4.78125 h -36.09 V 300.031 h 36.09"
         style="fill:#231f20;fill-opacity:1;fill-rule:nonzero;stroke:none"
         id="path32" />
      <path
         d="m 2020.07,87.3984 c -1.3,-16.957 -8.26,-86.968712 -81.75,-86.968712 -79.57,0 -86.53,81.320312 -86.53,153.500312 0,87.832 23.92,150.449 90.01,150.449 72.18,0 76.97,-66.969 77.4,-86.098 h -36.09 c -0.87,10 -2.18,53.918 -42.18,53.918 -43.92,0 -51.31,-59.14 -51.31,-118.269 0,-61.3089 6.96,-122.1878 49.57,-122.1878 37.83,0 43.05,41.3086 44.35,55.6562 h 36.53"
         style="fill:#231f20;fill-opacity:1;fill-rule:nonzero;stroke:none"
         id="path34" />
      <path
         d="m 2676.12,144.359 h -97.84 V 36.5195 h 108.71 L 2682.21,4.78125 H 2542.63 V 300.031 h 138.27 v -32.179 h -102.62 v -91.313 h 97.84 v -32.18"
         style="fill:#231f20;fill-opacity:1;fill-rule:nonzero;stroke:none"
         id="path36" />
      <path
         d="m 2960.94,172.621 v -31.742 h -90.01 v 31.742 h 90.01"
         style="fill:#231f20;fill-opacity:1;fill-rule:nonzero;stroke:none"
         id="path38" />
      <path
         d="M 3194.88,300.031 V 4.78125 h -36.09 V 300.031 h 36.09"
         style="fill:#231f20;fill-opacity:1;fill-rule:nonzero;stroke:none"
         id="path40" />
      <path
         d="M 3413.6,4.78125 V 300.031 h 43.49 c 77.83,-196.543 89.14,-224.8122 93.05,-238.2888 h 0.43 c -2.17,39.1368 -2.6,83.4878 -2.6,131.3168 v 106.972 h 33.48 V 4.78125 H 3539.7 C 3459.26,211.762 3448.39,239.59 3444.91,251.332 h -0.43 c 2.17,-36.531 2.6,-83.922 2.6,-136.973 V 4.78125 h -33.48"
         style="fill:#231f20;fill-opacity:1;fill-rule:nonzero;stroke:none"
         id="path42" />
      <path
         d="m 3799.74,300.031 h 138.71 v -32.179 h -102.62 v -94.364 h 96.53 V 141.75 h -96.53 V 4.78125 h -36.09 V 300.031"
         style="fill:#231f20;fill-opacity:1;fill-rule:nonzero;stroke:none"
         id="path44" />
      <path
         d="m 4170.65,169.148 h 35.22 c 35.22,0 48.27,19.133 48.27,52.614 0,28.699 -13.05,47.828 -44.79,47.828 h -38.7 z m 0,-30.437 V 4.78125 h -36.09 V 300.031 h 79.58 c 50,0 76.96,-28.269 76.96,-76.972 0,-43.911 -21.74,-62.61 -39.14,-68.7 26.53,-10 35.23,-33.48 35.23,-75.2184 V 67.3984 c 0,-28.6992 1.3,-46.5273 4.34,-62.61715 h -36.09 c -3.91,13.48045 -4.35,39.14065 -4.35,63.48825 v 10 c 0,41.7425 -8.69,60.4415 -47.39,60.4415 h -33.05"
         style="fill:#231f20;fill-opacity:1;fill-rule:nonzero;stroke:none"
         id="path46" />
      <path
         d="m 4604.18,126.969 c -16.09,69.14 -26.53,114.363 -30.87,138.711 h -0.88 c -3.91,-25.66 -15.65,-77.399 -29.13,-138.711 z M 4536.34,94.7891 4515.91,4.78125 h -36.09 L 4550.7,300.031 h 46.95 L 4670.27,4.78125 h -38.7 l -20.43,90.00785 h -74.8"
         style="fill:#231f20;fill-opacity:1;fill-rule:nonzero;stroke:none"
         id="path48" />
      <path
         d="m 4890.73,83.4883 c 2.61,-29.5664 16.09,-53.0469 47.4,-53.0469 30,0 44.79,16.5195 44.79,48.2578 0,29.9998 -12.61,46.0898 -52.18,65.2308 -46.97,22.172 -67.4,43.039 -67.4,85.66 0,42.172 26.96,74.351 76.09,74.351 58.71,0 74.36,-41.742 75.23,-76.961 H 4979 c -1.74,14.782 -6.08,46.961 -40.87,46.961 -26.96,0 -38.27,-18.261 -38.27,-40.882 0,-26.95 11.74,-40 48.27,-56.957 51.75,-24.782 71.75,-49.133 71.75,-94.352 0,-46.5312 -26.96,-81.320312 -82.62,-81.320312 -60.88,0 -80.44,39.570312 -82.62,83.058612 h 36.09"
         style="fill:#231f20;fill-opacity:1;fill-rule:nonzero;stroke:none"
         id="path50" />
      <path
         d="m 5262.08,267.852 h -65.23 v 32.179 h 166.98 v -32.179 h -65.66 V 4.78125 h -36.09 V 267.852"
         style="fill:#231f20;fill-opacity:1;fill-rule:nonzero;stroke:none"
         id="path52" />
      <path
         d="m 5591.68,169.148 h 35.22 c 35.22,0 48.27,19.133 48.27,52.614 0,28.699 -13.05,47.828 -44.79,47.828 h -38.7 z m 0,-30.437 V 4.78125 h -36.09 V 300.031 h 79.57 c 50.01,0 76.97,-28.269 76.97,-76.972 0,-43.911 -21.74,-62.61 -39.14,-68.7 26.53,-10 35.23,-33.48 35.23,-75.2184 V 67.3984 c 0,-28.6992 1.3,-46.5273 4.34,-62.61715 h -36.09 c -3.91,13.48045 -4.35,39.14065 -4.35,63.48825 v 10 c 0,41.7425 -8.69,60.4415 -47.39,60.4415 h -33.05"
         style="fill:#231f20;fill-opacity:1;fill-rule:nonzero;stroke:none"
         id="path54" />
      <path
         d="M 5953.03,300.031 V 93.4883 c 0,-30.8789 8.7,-62.1797 46.53,-62.1797 37.39,0 46.52,26.0898 46.52,62.1797 V 300.031 h 36.09 V 93.0508 C 6082.17,39.5703 6062.61,0 5998.69,0 5936.51,0 5916.5,36.9609 5916.5,91.75 v 208.281 h 36.53"
         style="fill:#231f20;fill-opacity:1;fill-rule:nonzero;stroke:none"
         id="path56" />
      <path
         d="m 6454.83,87.3984 c -1.31,-16.957 -8.27,-86.968712 -81.75,-86.968712 -79.57,0 -86.53,81.320312 -86.53,153.500312 0,87.832 23.91,150.449 90.01,150.449 72.18,0 76.96,-66.969 77.4,-86.098 h -36.09 c -0.87,10 -2.18,53.918 -42.18,53.918 -43.92,0 -51.31,-59.14 -51.31,-118.269 0,-61.3089 6.96,-122.1878 49.57,-122.1878 37.83,0 43.05,41.3086 44.35,55.6562 h 36.53"
         style="fill:#231f20;fill-opacity:1;fill-rule:nonzero;stroke:none"
         id="path58" />
      <path
         d="m 6697.9,267.852 h -65.22 v 32.179 h 166.97 v -32.179 h -65.66 V 4.78125 H 6697.9 V 267.852"
         style="fill:#231f20;fill-opacity:1;fill-rule:nonzero;stroke:none"
         id="path60" />
      <path
         d="M 7025.33,300.031 V 93.4883 c 0,-30.8789 8.7,-62.1797 46.53,-62.1797 37.39,0 46.52,26.0898 46.52,62.1797 V 300.031 h 36.09 V 93.0508 C 7154.47,39.5703 7134.91,0 7070.99,0 7008.81,0 6988.8,36.9609 6988.8,91.75 v 208.281 h 36.53"
         style="fill:#231f20;fill-opacity:1;fill-rule:nonzero;stroke:none"
         id="path62" />
      <path
         d="m 7406.25,169.148 h 35.22 c 35.22,0 48.26,19.133 48.26,52.614 0,28.699 -13.04,47.828 -44.78,47.828 h -38.7 z m 0,-30.437 V 4.78125 h -36.09 V 300.031 h 79.57 c 50.01,0 76.96,-28.269 76.96,-76.972 0,-43.911 -21.74,-62.61 -39.13,-68.7 26.52,-10 35.22,-33.48 35.22,-75.2184 V 67.3984 c 0,-28.6992 1.31,-46.5273 4.35,-62.61715 h -36.09 c -3.92,13.48045 -4.35,39.14065 -4.35,63.48825 v 10 c 0,41.7425 -8.7,60.4415 -47.39,60.4415 h -33.05"
         style="fill:#231f20;fill-opacity:1;fill-rule:nonzero;stroke:none"
         id="path64" />
      <path
         d="m 7867.17,144.359 h -97.84 V 36.5195 h 108.71 L 7873.26,4.78125 H 7733.68 V 300.031 h 138.27 v -32.179 h -102.62 v -91.313 h 97.84 v -32.18"
         style="fill:#231f20;fill-opacity:1;fill-rule:nonzero;stroke:none"
         id="path66" />
      <path
         d="m 8561.2,87.3984 c -1.3,-16.957 -8.26,-86.968712 -81.74,-86.968712 -79.58,0 -86.53,81.320312 -86.53,153.500312 0,87.832 23.91,150.449 90.01,150.449 72.18,0 76.96,-66.969 77.4,-86.098 h -36.1 c -0.87,10 -2.17,53.918 -42.17,53.918 -43.92,0 -51.31,-59.14 -51.31,-118.269 0,-61.3089 6.95,-122.1878 49.57,-122.1878 37.83,0 43.04,41.3086 44.35,55.6562 h 36.52"
         style="fill:#231f20;fill-opacity:1;fill-rule:nonzero;stroke:none"
         id="path68" />
      <path
         d="m 8791.24,155.23 c 0,-81.3081 16.09,-123.9214 51.31,-123.9214 36.96,0 51.31,40.8711 51.31,123.4924 0,82.609 -15.66,117.828 -51.31,117.828 -35.22,0 -51.31,-40 -51.31,-117.399 z m 140.01,-0.429 c 0,-101.7502 -24.78,-154.371312 -89.57,-154.371312 -61.31,0 -87.84,50.878912 -87.84,153.929312 0,101.75 30.88,150.02 89.58,150.02 61.74,0 87.83,-49.137 87.83,-149.578"
         style="fill:#231f20;fill-opacity:1;fill-rule:nonzero;stroke:none"
         id="path70" />
      <path
         d="m 9138.24,300.031 h 36.09 V 36.5195 h 104.79 l -4.78,-31.73825 h -136.1 V 300.031"
         style="fill:#231f20;fill-opacity:1;fill-rule:nonzero;stroke:none"
         id="path72" />
      <path
         d="m 9469.58,300.031 h 36.09 V 36.5195 h 104.79 l -4.78,-31.73825 h -136.1 V 300.031"
         style="fill:#231f20;fill-opacity:1;fill-rule:nonzero;stroke:none"
         id="path74" />
      <path
         d="m 9913.97,126.969 c -16.09,69.14 -26.52,114.363 -30.87,138.711 h -0.87 c -3.92,-25.66 -15.66,-77.399 -29.14,-138.711 z M 9846.14,94.7891 9825.7,4.78125 h -36.09 l 70.88,295.24975 h 46.96 L 9980.06,4.78125 h -38.7 l -20.43,90.00785 h -74.79"
         style="fill:#231f20;fill-opacity:1;fill-rule:nonzero;stroke:none"
         id="path76" />
      <path
         d="m 10207.5,34.3516 h 38.3 c 33,0 51.3,19.5703 51.3,56.957 0,37.8324 -18.7,56.9614 -57.4,56.9614 h -32.2 z m 32.6,143.4884 c 36.1,0 48.7,15.66 48.7,46.531 0,28.699 -15.2,45.66 -45.2,45.66 h -36.1 V 177.84 Z m -68.3,122.191 h 79.6 c 45.2,0 72.6,-26.961 72.6,-72.621 0,-39.129 -18.7,-56.519 -35.6,-62.609 22.1,-7.832 45.2,-28.27 45.2,-73.4924 0,-53.4805 -33.1,-86.52735 -84.4,-86.52735 h -77.4 V 300.031"
         style="fill:#231f20;fill-opacity:1;fill-rule:nonzero;stroke:none"
         id="path78" />
      <path
         d="m 10563.6,155.23 c 0,-81.3081 16.1,-123.9214 51.3,-123.9214 37,0 51.3,40.8711 51.3,123.4924 0,82.609 -15.6,117.828 -51.3,117.828 -35.2,0 -51.3,-40 -51.3,-117.399 z m 140,-0.429 c 0,-101.7502 -24.7,-154.371312 -89.5,-154.371312 -61.3,0 -87.9,50.878912 -87.9,153.929312 0,101.75 30.9,150.02 89.6,150.02 61.8,0 87.8,-49.137 87.8,-149.578"
         style="fill:#231f20;fill-opacity:1;fill-rule:nonzero;stroke:none"
         id="path80" />
      <path
         d="m 10946.7,169.148 h 35.2 c 35.3,0 48.3,19.133 48.3,52.614 0,28.699 -13,47.828 -44.8,47.828 h -38.7 z m 0,-30.437 V 4.78125 h -36.1 V 300.031 h 79.6 c 50,0 77,-28.269 77,-76.972 0,-43.911 -21.8,-62.61 -39.2,-68.7 26.6,-10 35.2,-33.48 35.2,-75.2184 V 67.3984 c 0,-28.6992 1.4,-46.5273 4.4,-62.61715 h -36.1 c -3.9,13.48045 -4.3,39.14065 -4.3,63.48825 v 10 c 0,41.7425 -8.7,60.4415 -47.4,60.4415 h -33.1"
         style="fill:#231f20;fill-opacity:1;fill-rule:nonzero;stroke:none"
         id="path82" />
      <path
         d="m 11380.2,126.969 c -16,69.14 -26.5,114.363 -30.8,138.711 h -0.9 c -3.9,-25.66 -15.7,-77.399 -29.1,-138.711 z M 11312.4,94.7891 11292,4.78125 h -36.1 l 70.9,295.24975 h 46.9 l 72.6,-295.24975 h -38.7 l -20.4,90.00785 h -74.8"
         style="fill:#231f20;fill-opacity:1;fill-rule:nonzero;stroke:none"
         id="path84" />
      <path
         d="m 11653.3,267.852 h -65.2 v 32.179 h 167 v -32.179 h -65.7 V 4.78125 h -36.1 V 267.852"
         style="fill:#231f20;fill-opacity:1;fill-rule:nonzero;stroke:none"
         id="path86" />
      <path
         d="M 11982.9,300.031 V 4.78125 h -36.1 V 300.031 h 36.1"
         style="fill:#231f20;fill-opacity:1;fill-rule:nonzero;stroke:none"
         id="path88" />
      <path
         d="m 12227.7,155.23 c 0,-81.3081 16.1,-123.9214 51.4,-123.9214 36.9,0 51.3,40.8711 51.3,123.4924 0,82.609 -15.7,117.828 -51.3,117.828 -35.3,0 -51.4,-40 -51.4,-117.399 z m 140.1,-0.429 c 0,-101.7502 -24.8,-154.371312 -89.6,-154.371312 -61.3,0 -87.9,50.878912 -87.9,153.929312 0,101.75 30.9,150.02 89.6,150.02 61.8,0 87.9,-49.137 87.9,-149.578"
         style="fill:#231f20;fill-opacity:1;fill-rule:nonzero;stroke:none"
         id="path90" />
      <path
         d="M 12574.7,4.78125 V 300.031 h 43.5 c 77.9,-196.543 89.2,-224.8122 93.1,-238.2888 h 0.4 c -2.2,39.1368 -2.6,83.4878 -2.6,131.3168 v 106.972 h 33.5 V 4.78125 h -41.8 C 12620.4,211.762 12609.5,239.59 12606,251.332 h -0.4 c 2.2,-36.531 2.6,-83.922 2.6,-136.973 V 4.78125 h -33.5"
         style="fill:#231f20;fill-opacity:1;fill-rule:nonzero;stroke:none"
         id="path92" />
    </g>
  </g>
</svg>
