<?xml version="1.0" encoding="UTF-8"?>
<svg id="Lager_1" data-name="Lager 1" xmlns="http://www.w3.org/2000/svg" xmlns:xlink="http://www.w3.org/1999/xlink" viewBox="0 0 395.56 170.08">
  <defs>
    <style>
      .cls-1 {
        clip-path: url(#clippath);
      }

      .cls-2 {
        fill: none;
      }

      .cls-2, .cls-3, .cls-4 {
        stroke-width: 0px;
      }

      .cls-5 {
        clip-path: url(#clippath-1);
      }

      .cls-3 {
        fill: #878787;
      }

      .cls-4 {
        fill: #1d1d1b;
      }
    </style>
    <clipPath id="clippath">
      <rect class="cls-2" x="20.88" y="26.13" width="360.19" height="114.75"/>
    </clipPath>
    <clipPath id="clippath-1">
      <rect class="cls-2" x="155.54" y="108.38" width="224.54" height="29.99"/>
    </clipPath>
  </defs>
  <g class="cls-1">
    <path class="cls-4" d="m73,88.97c-.64,2.17-1.43,4.69-4.54,7.55-2.81,2.57-7.45,5.48-16.34,5.48-12.39,0-20.98-6.47-20.98-18.66,0-13.13,10.47-18.46,21.48-18.46,4,0,14.5.94,19.13,9.3l-8.71,2.75c-.94-1.48-3.71-5.33-10.48-5.33-7.9,0-12.33,5.17-12.33,11.84,0,7.6,6.03,11.65,12.64,11.65,7.55,0,9.82-3.95,10.96-6.07l9.18-.05Zm-41.87-5.63c0-13.13,10.47-18.46,21.48-18.46"/>
    <polygon class="cls-4" points="76.81 65.96 85.55 65.96 85.55 79.39 106.2 79.39 106.2 65.96 114.94 65.96 114.94 100.82 106.2 100.82 106.2 85.86 85.55 85.86 85.55 100.82 76.81 100.82 76.81 65.96"/>
    <path class="cls-4" d="m135.93,65.96h9.43l16.84,34.86h-9.78l-3.46-7.61h-16.98l-3.37,7.61h-9.53l16.84-34.86Zm5.53,10.71c-.25-.44-.44-.93-.59-1.38-.15-.45-.25-.89-.3-1.38-.15.44-.25.84-.35,1.24-.2.44-.35.89-.54,1.33l-4.87,10.55h11.25l-4.61-10.36Z"/>
    <polygon class="cls-4" points="166.69 65.96 175.43 65.96 175.43 94.4 193.03 94.4 193.03 100.82 166.69 100.82 166.69 65.96"/>
    <path class="cls-4" d="m198.29,65.96h12.59l9.09,21.33c.94,2.27,1.28,3.21,1.78,5.18.35-1.48.64-2.37,1.63-4.79l9.09-21.72h12.49v34.86h-8.24v-24.39c0-1.03.15-1.93.34-3.26-.34,1.04-.49,1.43-.99,2.67l-10.42,24.98h-7.95l-10.42-24.49c-.55-1.33-.65-1.73-1.04-3.16.15,1.48.2,1.78.3,3.11v24.54h-8.25v-34.86Z"/>
    <polygon class="cls-4" points="253.03 65.96 285.52 65.96 285.52 72.23 261.77 72.23 261.77 80.08 282.68 80.08 282.68 86.25 261.77 86.25 261.77 94.6 286.51 94.6 286.51 100.82 253.03 100.82 253.03 65.96"/>
    <path class="cls-4" d="m340.82,90.19c2.05,4.16,7.05,5.36,11.8,5.27,2.12-.03,8.78-.5,8.7-4.74-.04-2.52-2.47-3.07-4.35-3.38-1.43-.27-8.61-1.24-10.25-1.5-3.22-.53-11.34-1.93-11.48-9.82-.03-1.73.43-3.51,1.29-4.96,2.83-4.74,9.23-6.09,14.76-6.18,5.08-.09,8.99.58,12.63,2.5,3.59,1.86,5.16,4.4,5.88,5.53l-8.26,2.22c-.31-.54-1.02-1.81-3.11-2.81-2.34-1.1-5.36-1.24-7.03-1.21-3.85.07-7.79.88-7.73,4.18.04,2.27,2.07,2.83,4.7,3.38,1.44.27,8.57,1.33,10.2,1.65,4.06.67,10.95,2.03,11.08,9.68.2,11.21-12.36,11.84-17.45,11.91-5.73.08-14.65-.73-19.3-9.49l7.91-2.21Z"/>
    <path class="cls-4" d="m293.06,65.98h24c3.95,0,7.55.35,10.47,3.7,1.78,2.07,2.27,4.69,2.27,6.72,0,2.67-.89,5.82-3.36,7.7-1.88,1.43-4.3,1.93-5.68,2.17l10.56,14.57h-10.03l-9.57-14.02h-9.92v14.02h-8.74v-34.86Zm8.74,14.67h13.92c1.87,0,5.23-.25,5.23-4.15,0-.69-.1-1.88-.69-2.72-.64-.84-1.48-1.68-4.94-1.68h-13.53v8.54Z"/>
  </g>
  <g class="cls-5">
    <path class="cls-3" d="m369.4,122.22c-.79-3.98-3.45-5.96-10.2-5.96-8.04,0-10.93,2.46-10.93,6.29,0,4.21,2.66,5.35,5.41,5.85,4.71.85,11.26-.58,11.26,2.16,0,1.9-2.4,2.72-5.58,2.72-2.92,0-5.99-.73-6.29-2.57h-5.23c.26,2.92,1.46,4.33,3.95,5.55,1.4.67,3.36.99,7.22.99,7.81,0,10.96-2.84,10.96-7.25,0-1.78-.61-2.87-1.37-3.63-1.02-.96-2.28-1.49-4.68-1.7-1.87-.18-3.86-.18-5.73-.18-2.84,0-4.85-.06-4.85-2.05,0-1.58,1.96-2.34,5.91-2.34,2.75,0,4.65.53,5.41,2.28l4.77-.18Zm-32.22-1.08c1.08,0,2.05.44,2.05,1.7s-.96,1.72-2.05,1.72h-10.58v-3.42h10.58Zm0,7.46c1.26,0,2.4.41,2.4,1.81s-1.14,1.78-2.4,1.78h-10.58v-3.6h10.58Zm-15.35-11.69v19.73h15.99c4.97,0,7.25-2.51,7.25-5.7,0-2.19-1.23-3.95-3.57-4.59,1.67-.79,2.51-2.6,2.51-4.36,0-3.04-2.25-5.09-6.2-5.09h-15.99Zm-15.41,4.18l3.45,7.6h-6.99l3.54-7.6Zm3.07-4.18h-6.08l-9.33,19.73h5.12l1.87-4.03h10.58l1.84,4.03h5.55l-9.56-19.73Zm-30.61,0h-4.77v19.73h19.33v-4.77h-14.56v-14.97Zm-15.52,0h-20.79v4.41h8.01v15.32h4.77v-15.32h8.01v-4.41Zm-22.42,0h-6.14l-5.88,6.23-5.55-6.23h-6.64l9,9.74-9.47,10h6.17l6.31-6.81,6.05,6.81h6.61l-9.35-10.7,8.89-9.03Zm-26.34,0h-20.79v19.73h21.2v-4.5h-16.4v-3.57h14.03v-4.12h-14.03v-3.48h15.99v-4.06Zm-25.64,0h-5.03v13.13l-13.19-13.13h-5.09v19.73h5.03v-13.59l13.3,13.59h4.97v-19.73Z"/>
  </g>
</svg>