<?xml version="1.0" encoding="UTF-8"?>
<svg id="a" data-name="Lager 1" xmlns="http://www.w3.org/2000/svg" width="226px" height="111px" viewBox="0 0 226.35 111.34">
  <defs>
    <style>
      .b {
        fill: #000;
      }
    </style>
  </defs>
  <g>
    <path class="b" d="M161.88,18.72l-.5,.83c-2.98,4.24-4.96,6.89-5.96,7.94-2.41,2.42-5.05,3.61-7.94,3.56-1.52-.05-2.59-.47-3.23-1.28-.24-.09-.49,0-.76,.26l.15,.36c.59,.95,1.69,1.48,3.3,1.59,2.15,.19,4.18-.21,6.06-1.19,1.84-1,3.77-2.7,5.8-5.1l2.51-3.3,.07-.07s.46-.07,1.33-.21c.9-.13,1.66-.18,2.28-.14h.55c.9,.09,1.41,.25,1.52,.45,.09,.25,.09,.48-.02,.69l-.07,.17c-1.77,3.45-3,5.49-3.68,6.1-.97,.86-1.34,1.47-1.12,1.83,.32,.43,1.26,.64,2.83,.64,1.47,.09,3.26-.17,5.35-.79,.89-.22,2.09-.76,3.61-1.61l.4-.28,.14,.47c0,.22,.14,.51,.4,.88,.22,.32,.45,.54,.71,.69,.3,.11,.6,.17,.9,.17,1.28,0,2.63-.48,4.04-1.45,.32-.24,.83,0,1.54,.73,.49,.46,1.1,.7,1.83,.71,.47,.09,1.86-.32,4.16-1.26l.21-.14,.19,.21c0,.09,.29,.32,.88,.69,.36,.22,.7,.38,1,.47,.27,.01,.52,.05,.76,.09h.27c1.09,0,2.84-.44,5.25-1.33,.09-.05,.2-.1,.33-.14l.36-.05,.12,.19c0,.14,.23,.39,.69,.76,.59,.43,1.27,.67,2.07,.71,1.8,.11,3.74-.38,5.8-1.47,.05,0,.1-.02,.14-.07,1.57-.81,2.8-1.66,3.71-2.54,.57-.51,.86-.87,.86-1.09h-.07c-.3,0-.63,.18-.98,.55-.68,.75-1.79,1.55-3.32,2.42-.49,.32-.97,.56-1.44,.74-1.51,.63-2.75,.73-3.73,.28-.18-.09-.33-.19-.47-.28-.44-.27-.76-.56-.95-.88-.13-.36-.13-.88,0-1.54,.1-.18,.4-.26,.9-.26,1.27,.13,2.37-.1,3.3-.69,2.01-1.16,3.13-2.29,3.37-3.39,.08-.45-.02-.87-.28-1.24-.36-.41-.92-.62-1.66-.62-1.05,0-2.17,.3-3.37,.9-1.31,.63-2.38,1.46-3.21,2.47-.84,1.07-1.39,2.02-1.66,2.83-.09,.41-.12,.7-.07,.86l.07,.38c-.46,.38-.9,.71-1.33,1-1.05,.54-2.1,.71-3.16,.52-.68-.13-1.18-.48-1.5-1.07-.05-.05-.07-.09-.07-.14-.25-.62-.3-1.4-.14-2.35,.05-.32,.12-.61,.21-.88,.13-.46,.28-.84,.47-1.14,1.38-2.15,2.75-3.16,4.11-3.02h.07c.75,.05,1.16,.42,1.26,1.12,.14,.25,.3,.38,.47,.38,.59,0,.95-.18,1.09-.55,.16-.32,0-.68-.47-1.09-.51-.49-1.21-.7-2.11-.62-.07,0-.15,.02-.24,.07-1.57,.14-3.12,.95-4.66,2.42-.25,.22-.51,.46-.76,.73-.16,.19-.34,.39-.55,.62-.57,.71-.99,1.54-1.26,2.5-.14,.49-.23,.91-.26,1.26v.14l-.07,.09c-1.34,1.25-2.7,1.8-4.06,1.66-.38-.05-.62-.23-.71-.55-.32-.49-.16-1.38,.48-2.68l2.02-4.96c.18-.46,.22-.74,.12-.83-.18-.18-.58-.24-1.21-.19-1.25,.13-1.88,.31-1.88,.55l.14,.12c.27,.26,.38,.56,.33,.93-.09,.32-.46,1.23-1.09,2.73-.68,1.52-1.1,2.39-1.26,2.61-.32,.35-.8,.71-1.43,1.07-.89,.45-1.62,.48-2.21,.12-.55-.31-.71-.96-.47-1.92,.13-.51,.45-1.45,.98-2.83l.45-1.02c1.11-2.77,2.63-6.25,4.56-10.43,.27-.59,.56-1.19,.88-1.8,.71-1.55,2.05-3.06,4.02-4.54,2.34-1.75,4.55-2.55,6.62-2.41,3.4,.19,5.04,1.67,4.9,4.44-.09,1.57-.56,2.89-1.4,3.97-1.07,1.34-2.85,2.44-5.37,3.28-.6,.21-1.1,.36-1.5,.47-.51,.21-.86,.34-1.07,.38h-.62l-.19,.09,.05,.14s.14,.12,.43,.21c.27,.13,.53,.17,.79,.12,.18,0,.38-.01,.62-.05,1.79-.3,3.63-1.18,5.51-2.64,1.41-1.05,2.38-2.05,2.9-3.02,.54-.98,.83-2.26,.88-3.83,0-1-.42-1.96-1.26-2.9-.51-.54-1.24-.97-2.19-1.28-.79-.28-1.55-.43-2.28-.43-1.79,0-3.85,.57-6.2,1.71-2.83,1.38-4.81,3.13-5.91,5.25-.41,.74-.88,1.69-1.4,2.82-.73,1.43-1.57,3.15-2.52,5.18-1.61,3.45-2.56,5.54-2.83,6.27l-1.19,3.16-.07,.07c-1.19,.98-2.86,1.71-5.01,2.21-2.28,.47-3.58,.52-3.9,.14-.18-.19-.18-.4,0-.62l.43-.47c.84-.84,1.44-1.65,1.8-2.42,.13-.22,1-2.42,2.61-6.61v-.07c2.98-7.54,4.64-11.59,5.01-12.16,.36-.49,1.03-1.33,2-2.52l.21-.17c.27-.36,.32-.71,.14-1.02-.09-.27-.32-.43-.69-.47-.41-.14-.87-.12-1.35,.07-.62,.22-1.94,.25-3.96,.07-2.11-.19-4.13-.53-6.06-1.02-6.46-1.71-11.57-1.05-15.34,1.99-1.66,1.36-2.99,2.85-3.99,4.46-.89,1.47-1.33,2.78-1.33,3.92,0,.52,.14,1.13,.4,1.8,.27,.59,.58,1.04,.92,1.35,1.32,1.11,2.96,1.69,4.94,1.73,1.91,.05,3.93-.43,6.06-1.43,2.63-1.21,4.62-2.54,5.98-4.02,.09-.09,.14-.32,.14-.69l-.07-.12c-.36,.17-.66,.35-.88,.52-1.57,1.44-3.52,2.64-5.87,3.59-2.52,.98-4.67,1.32-6.46,1.02-1.93-.32-3.21-1.07-3.85-2.25-.26-.49-.33-1.13-.24-1.92,.06-.87,.33-1.68,.79-2.42,.95-1.78,2.29-3.31,4.04-4.61,1.93-1.52,3.82-2.32,5.65-2.4,1.62-.14,3.99,.06,7.13,.59,2.04,.36,3.3,.57,3.77,.62,2.71,.25,4.69,.23,5.94-.07h.07l-.69,.62c-4.61,5.15-8.29,9.65-11.05,13.52h-.01Zm38.38,6.97c.19-.6,.63-1.26,1.31-1.97,.84-.93,1.74-1.37,2.68-1.33,.68,0,1.1,.19,1.26,.57,.19,.63-.21,1.39-1.19,2.25-.87,.65-1.88,1.02-3.04,1.12-.27,.05-.54,0-.8-.17l-.21-.38v-.09h0Zm-26.39-18.66c.14-.1,0,.35-.4,1.33l-4.99,11.71c-.13,.41-.35,.69-.67,.83h-.07c-.27,.08-1.16,.12-2.68,.12-.62,.05-1.45,0-2.5-.12v-.07l.21-.31c0-.06,.6-.95,1.8-2.66,1.32-1.94,2.37-3.43,3.16-4.49,2.03-2.57,3.71-4.39,5.04-5.46l1.09-.88h0Z"/>
    <path class="b" d="M186.12,16.82c-.49,.16-.83,.41-1.02,.76l-.07,.33,.07,.19c.19,.55,.74,.67,1.64,.36,.52-.24,.86-.52,1.02-.83,.07-.22,.09-.39,.07-.5-.26-.55-.82-.66-1.71-.31Z"/>
    <path class="b" d="M19.87,21.21c1.65,.73,3.44,1.07,5.37,1.02,2.25-.05,4.2-.63,5.87-1.73,2.64-1.73,5.14-3.97,7.48-6.75,.52-.63,.63-1.11,.31-1.43-.01-.05-.39,.29-1.12,1.02-2.03,2.11-3.09,3.21-3.18,3.32-.65,.63-1.79,1.54-3.42,2.73-1.25,.89-2.94,1.42-5.06,1.59-2.32,.19-4.43-.16-6.32-1.05-2.5-1.14-3.47-3.05-2.9-5.72,.36-2.09,1.86-4.08,4.49-5.97,1.78-1.2,3.81-2.23,6.1-3.06,2.04-.77,4.12-1.04,6.23-.8,1.05,.13,2.58,.48,4.61,1.05l.55,.21c3.04,.86,5.55,1.33,7.53,1.42l1.07,.07-.95,.57c-.45,.32-.98,.79-1.59,1.43-1.27,1.34-2.31,2.96-3.11,4.84-2.65,6.18-5.03,10.4-7.15,12.66-2.25,2.7-4.27,4.4-6.06,5.08-1.11,.43-2.81,.53-5.11,.31-.79-.09-1.62-.32-2.5-.69-.71-.25-1.12-.31-1.21-.17v.14c.32,.57,1.53,1.04,3.64,1.4,2.39,.44,4.46,.37,6.2-.21,1.74-.57,3.65-1.83,5.72-3.78,1.43-1.3,2.95-3.47,4.56-6.51,.82-1.52,1.92-3.86,3.3-7.01l.88-1.95c.87-1.77,1.78-3.21,2.71-4.32,.63-.66,1.66-1.65,3.09-2.97l.54-.54c.2-.16,.31-.32,.31-.47-.16-.16-.58-.03-1.26,.38-.78,.52-1.72,.76-2.83,.71-1.42-.05-3.65-.52-6.67-1.4-3.04-.9-5.37-1.4-6.98-1.5-1.63-.09-3.49,.16-5.58,.76-3.07,.9-5.77,2.49-8.1,4.75-2.45,2.49-3.65,4.92-3.58,7.29v.07s.18,.7,.54,1.95c.68,1.36,1.88,2.44,3.59,3.23v.02Z"/>
    <path class="b" d="M169.34,73.99c.22,.32,.54,.47,.95,.47h.19c.6-.08,1.01-.44,1.23-1.07l.93-2.78c1.27-3.48,2.06-5.63,2.38-6.46,.25-.62,.48-.95,.69-1h.31c.27,0,.58-.06,.95-.19,.41-.19,1.08-.15,2.02,.12,.86,.3,1.57,.45,2.14,.45,1.17,.05,2.61-.35,4.32-1.19l.26-.26c-.18-.19-.53-.19-1.07,0-.71,.27-1.52,.22-2.42-.14l-1.78-.54c-.97-.2-2.01,.02-3.14,.69l-.66,.33c-.55,.09-.94-.09-1.16-.55l-.08-.14v.07c-.11-.13-.73-.18-1.87-.14h-.64c-.82,0-1.26,.12-1.31,.36-.05,.08-.05,.14,0,.19,.14,.24,.4,.36,.76,.36,.16,0,.34,.09,.54,.26,.07,.14,.07,.41,0,.79-.11,.59-.79,2.55-2.04,5.89v.14h-.07c-.05,.06-.14,.14-.28,.24-.35,.32-1.02,.77-2,1.35-.27,.14-.56,.3-.88,.48-2.34,1.39-4.62,1.96-6.82,1.69-.52-.05-.97-.3-1.33-.76-.36-.43-.57-1.05-.62-1.88,.05-.73,.07-1.1,.07-1.12l.07-.48,.4,.17,1.26,.17c1.14-.05,2.5-.44,4.06-1.16,1.47-.68,2.61-1.42,3.42-2.21,.14-.14,.26-.27,.36-.4,.32-.41,.5-.89,.54-1.43,.06-.71-.09-1.39-.45-2.02-.01-.09-.05-.16-.09-.19-.9-1.24-2.28-1.54-4.13-.93-3.26,.97-5.57,2.57-6.94,4.82-.79,1.34-1.19,2.67-1.19,3.97v.26l-.76,.76c-.32,.22-2.25,1.01-5.8,2.35-.27,.18-.4,.33-.4,.47,.1,.09,.98-.11,2.66-.62,1.32-.41,2.57-.99,3.75-1.73l.33-.21,.21,.36,1.19,1.52c1.05,1.05,2.19,1.59,3.44,1.64,1.63,.05,4.04-.69,7.22-2.21,.13-.09,.26-.17,.4-.21,.11-.09,.22-.14,.33-.14,.2,0,.33,.07,.38,.21,.2,.16,.2,.53,0,1.12,0,.24,.05,.39,.14,.47h.02Zm-10.21-5.72c.45-2.28,1.43-3.93,2.95-4.96,2.03-1.32,3.44-1.7,4.23-1.16,.55,.36,.73,1.06,.54,2.09-.11,.9-.64,1.74-1.59,2.52-.82,.7-1.77,1.23-2.83,1.59-1.8,.55-2.89,.65-3.26,.28l-.12-.14,.07-.21h0Z"/>
    <path class="b" d="M89.51,30.81c-.05,.21,.26,.31,.93,.31,.49,0,2.35-.61,5.58-1.83v-.09h.14c0,.34,.18,.78,.54,1.33,.71,.92,1.54,1.38,2.47,1.38,1.46,0,2.7-.28,3.73-.85l-.07,.07c.59-.27,.97-.6,1.14-1v.07l.07-.07,.02,.19v.12l.43,.55c.46,.46,1.14,.69,2.04,.69,.84,0,1.96-.41,3.37-1.24v.07c-.19,.57-.19,.96,0,1.16,.02,.16,.14,.24,.36,.24,.55,0,.95-.11,1.19-.33,.18-.16,.37-.51,.6-1.04l.54-.98h.07c1.38-3.45,2.2-5.31,2.47-5.58,.33-.32,1.3-.64,2.9-.98,.65-.27,1.06-.27,1.21,0,.22,.27,.28,.62,.19,1.05v-.07l-.26,.55c-.79,1.8-1.39,3.3-1.8,4.49v.07c-.22,.82-.11,1.48,.33,1.97v-.07c.41,.74,1.42,1.12,3.02,1.12h.09c.92-.09,2.05-.69,3.38-1.78,.05,.13,.12,.26,.21,.4,.45,.57,.97,.97,1.57,1.19h-.05c.32,.13,.67,.19,1.05,.19,1.46-.03,2.73-.35,3.83-.95v.12c.38-.22,.71-.47,.98-.73v.12c.13,.19,.26,.43,.4,.71h.09c.49,.36,1.25,.61,2.28,.74,1.77,0,3.58-.74,5.44-2.21v-.07l.31-.26c-.06-.05-.09-.09-.09-.14l-.31-.21h-.4c-.19,0-.44,.07-.76,.21-1.25,1.05-2.6,1.51-4.06,1.4-.36,0-.62-.13-.76-.38-.28-.58-.25-1.25,.12-1.99l.38-.9c.92-2.2,1.81-4.13,2.68-5.77l.95-2.19c.22-.55,.43-1.07,.62-1.54l.33-.8h-.07c.19-.36,.38-.71,.57-1.05h.02c.87-1.88,1.89-3.39,3.06-4.54,.2-.22,.35-.4,.43-.55,1.05-.74,1.46-1.36,1.24-1.85l-.07-.02h-.21c-.13,.01-.24,.09-.33,.21-.95,.45-1.82,1.11-2.61,1.99v-.02c-1.01,1.03-1.96,2.31-2.82,3.83-.03,0-.05,.01-.05,.05-.47,.65-.88,1.34-1.21,2.09-.09,.09-.14,.18-.14,.26-.32,.68-.59,1.31-.8,1.88-.34,.73-.63,1.43-.9,2.12-.03,.09-.07,.2-.12,.33-.62-.35-1.47-.52-2.57-.52-1.82-.11-3.73,.78-5.72,2.68h-.07c-.22,.22-.45,.44-.67,.66l-.07,.07c-.97,1.03-1.58,1.81-1.85,2.35-.28,.68-.36,1.33-.21,1.95v.05s.02,.1,.05,.17c-.19,.13-.41,.26-.66,.4-1.25,.78-2.11,1.2-2.57,1.28-.45-.05-.76-.18-.95-.4-.2-.35-.24-.76-.09-1.24l1.95-5.1c.12-.6,.03-1.11-.28-1.52h.07c-.27-.6-.84-.92-1.71-.95-.78-.19-1.88,.06-3.32,.74h.02l-.45,.21c-.2-.08-.38-.23-.52-.45l-.09-.17v-.07h-.12s-.21-.07-.47-.07c-.51-.18-.93-.18-1.26,0-.41,.05-.6,.2-.55,.45l.02,.12v.07c0,.08,.02,.12,.07,.12,.18,.14,.21,.47,.12,1v-.07c-.13,.18-.54,.98-1.24,2.4-.41,.87-.71,1.52-.9,1.95l-.05,.09c-.11,.19-.23,.34-.36,.45-.16,.13-.27,.32-.33,.59-1.08,.67-2.12,1-3.13,1-.27,0-.45-.06-.55-.17v-.05c-.14-.14-.21-.33-.21-.57,.14-.49,.68-1.88,1.61-4.18,.55-1.3,1.05-1.97,1.5-2.02h.07c.43-.18,.8-.38,1.12-.62,0-.02,.04-.02,.12-.02v-.12l-.12-.12c-.32-.16-.76-.24-1.33-.24-.19-.05-.66,.03-1.43,.24l-.79,.24c-.13-.06-.26-.1-.41-.12h.03c-.53-.38-1.32-.57-2.38-.57-1.72-.08-3.51,.77-5.35,2.56-1.39,1.3-2.23,2.29-2.49,2.97-.14,.28-.38,.63-.71,1.02-.36,.28-2.26,.91-5.7,1.88h-.02c-.25,.13-.41,.27-.47,.43v.07l-.02-.02Zm36.62-3.06v-.07c0-.3,.02-.51,.05-.62,.31-1.28,.99-2.29,2.02-3.02,.71-.63,1.81-1.13,3.3-1.47,1.26-.36,2.13-.24,2.59,.38,.09,.09,.18,.25,.24,.45-1.38,3.17-2.17,5.03-2.38,5.58v.02h-.12s-.07,.02-.07,.07l-.21,.4c-1.24,1-2.31,1.48-3.21,1.45h-.09c-.78-.15-1.39-.46-1.85-.95v-.09c-.14-.08-.21-.19-.21-.33v-.07c-.18-.46-.19-1.04-.05-1.74h0Zm-27.74,.08c.2-1.5,.85-2.63,1.95-3.38,.68-.63,1.71-1.13,3.09-1.5,1.12-.32,1.93-.17,2.42,.45,.32,.28,.44,.66,.36,1.14l-1.95,4.45c-1.52,1.33-2.78,1.92-3.8,1.76h-.05c-.74-.01-1.32-.27-1.71-.76-.41-.6-.52-1.32-.31-2.16Z"/>
    <path class="b" d="M44.64,18.58l-.55,.28-.19,.33v.14c.44,.46,.58,1.25,.4,2.35-.05,.52-.34,1.42-.88,2.68-.84,2.44-1.28,3.87-1.33,4.3-.09,1.05,.14,1.93,.71,2.66,.41,.57,.93,.88,1.57,.93,1.06,.08,2.69-.32,4.89-1.21l.43-.19,.05,.47,.36,.5c.27,.14,.62,.14,1.05,0,.36-.07,.72-.57,1.09-1.52l2.28-6.01,.21-.05c.09-.05,.97-.41,2.61-1.09,.46-.26,.82-.26,1.09,0,.27,.27,.27,.7,0,1.28l-.07,.15c-1.2,2.42-1.8,4.12-1.8,5.11,0,.73,.28,1.28,.85,1.66,.41,.3,.89,.46,1.43,.48h.14c.78,0,2.12-.53,4.01-1.59l.36-.21,.12,.36,.54,.73c.55,.47,1.15,.73,1.78,.78,1.06,.05,2.51-.48,4.35-1.59l.43-.28,.12,.47,.28,.55c.38,.41,1.09,.62,2.14,.62,.89-.06,2.64-.67,5.25-1.83l.34-.21,.14,.4c.09,.24,.28,.46,.54,.69,.13,.11,.28,.22,.48,.34,.57,.3,1.15,.45,1.73,.45,.84,0,2.31-.65,4.39-1.95,.3-.27,.4-.48,.31-.64l-.17-.24-.45,.14c-.2,.18-.81,.44-1.8,.81-.98,.36-1.71,.57-2.21,.62-.36,0-.63-.14-.78-.4-.36-.46-.36-1.24,0-2.35l2.21-4.7,1.95-.21c.13,0,.19-.06,.19-.17,.09-.11,.09-.37,0-.79-.03-.27-.32-.56-.88-.88l-.26-.21,.14-.27c.08-.16,.6-1.31,1.54-3.44,.25-.3,.81-.63,1.69-1,.44-.18,.87-.33,1.28-.47,.52-.13,.78-.28,.78-.47l-.09-.26c-.27-.09-.5-.12-.69-.07-1.72,.36-3.07,.92-4.04,1.66-.51,.41-1.14,1.33-1.88,2.73-.68,1.25-1.02,1.94-1.02,2.06l-.14,.14c-.84,.46-1.42,.82-1.73,1.09l-.07,.14c0,.22,.16,.48,.47,.79,.21,.27,.07,.98-.4,2.14l-.28,.69c-.08,.22-.17,.43-.26,.62-.36,.76-.71,1.37-1.02,1.83-.57,.67-1.93,1.32-4.09,1.95-.51,.13-.94,.08-1.31-.14-.27-.27-.4-.63-.4-1.09,0-.22,.36-1.12,1.09-2.68l1.47-3.3c.13-.51,.1-.77-.07-.79-.25-.14-.61-.13-1.07,.02-.44,.16-.71,.34-.8,.55l-2.28,4.73c-.36,.71-.73,1.23-1.09,1.54-.22,.18-.69,.44-1.4,.8l-.4,.14c-.78,.41-1.34,.52-1.71,.33-.32-.08-.53-.37-.64-.88-.16-.41,.31-1.62,1.4-3.64l.62-1.26c.63-1.34,.86-2.25,.67-2.71-.18-.44-1.17-.4-2.99,.14l-.71,.31,.47,.48c.32,.27,.47,.56,.47,.88l-.17,.55c-.98,2.39-1.64,3.82-1.97,4.3-.46,.63-1.4,1.27-2.83,1.9-.62,.27-1.12,.25-1.5-.07-.09-.08-.19-.19-.28-.33-.18-.36-.18-.79,0-1.26l.21-.62c.74-1.68,1.27-3.14,1.59-4.39,.14-.54,.06-1.01-.26-1.43-.3-.47-.77-.71-1.4-.71h-.14c-.45,.05-1.32,.28-2.61,.71l-.28,.09c-.35,.14-.71,.11-1.07-.09l-.69-.24c-.41-.14-.72-.21-.93-.21-.27,.05-.67,.23-1.21,.55-.19,.05-.28,.15-.28,.31,0,.14,.09,.3,.28,.47,.44,.32,.33,1.33-.36,3.04-.89,2.11-2.09,3.55-3.61,4.32-.95,.48-1.79,.61-2.52,.41-.57-.18-.99-.52-1.26-1.02-.22-.36-.07-1.37,.47-3.02,.46-1.49,.88-2.61,1.26-3.38,.41-.71,.18-1.84-.71-3.37-.31-.51-.45-.84-.4-1,.05-.09,.31-.26,.79-.47l1.21-.62c1.57-1,3.64-2.77,6.2-5.32,.19-.18,.6-.58,1.24-1.21,.67-.73,1.55-1.7,2.66-2.9,1.68-1.74,2.98-3.03,3.92-3.85,3.86-3.18,8.96-4.34,15.3-3.47,.65,.08,1.61,.37,2.87,.88l.69,.24c.16,0,.29-.06,.4-.17,.09-.21,.06-.36-.09-.48-.16-.27-.85-.61-2.07-1.02-1.52-.59-3.16-.9-4.91-.95-2.57-.1-4.77,.15-6.6,.73-1.98,.59-4.13,1.71-6.43,3.37-.73,.53-1.8,1.52-3.21,2.97-.97,1.07-1.81,1.96-2.52,2.68l-1.16,1.16c-2.2,2.25-3.8,3.84-4.8,4.77-1.65,1.57-2.9,2.53-3.75,2.87h.02Z"/>
    <path class="b" d="M45.95,70.61c1.33-1.57,3.43-4.11,6.29-7.65,.14-.19,.28-.37,.43-.54l.47-.62c2.28-2.82,4.5-5.33,6.65-7.53,1.76-1.79,3.47-3.39,5.13-4.8,.18-.16,.37-.34,.6-.54,3.69-2.99,7.14-4.98,10.36-5.96l1.64-.47c2.25-.59,5.15-.3,8.69,.86l.07,.07c.74,.18,1.16,.1,1.26-.21,0-.16-.33-.42-1-.79-1.93-.63-2.95-.98-3.04-1.02-2.15-.43-4.39-.38-6.72,.14-4.32,1.04-8.55,3.3-12.68,6.75-.27,.22-.54,.44-.79,.64-.18,.2-.38,.39-.62,.54-.95,.86-1.92,1.8-2.9,2.83-1.79,1.88-3.65,4.05-5.58,6.48-.68,.9-1.34,1.73-1.97,2.47-2.63,3.39-4.73,5.93-6.29,7.62-.41,.46-.8,.84-1.16,1.14-.27,.4-.49,.53-.67,.4-.28-.14-.31-.37-.07-.69l.19-.57c.59-1.36,.97-2.17,1.16-2.42,.16-.32,.34-.63,.55-.95,1.3-2.44,2.5-5,3.61-7.7l3.16-7.39c.24-.51,.31-.81,.21-.9-.09-.03-.3,.04-.62,.21h-.07c-1.84,1.47-3.54,3.12-5.11,4.94-.18,.16-.57,.67-1.19,1.52-1.22,1.54-3.31,4.19-6.27,7.96-1.88,2.55-3.05,4.05-3.51,4.51-.49,.47-.87,.63-1.14,.47-.09-.06-.14-.18-.14-.33l.14-.4c1.88-3.55,3.12-6.08,3.71-7.6l.4-1.02c1.76-4.72,3.38-8.15,4.85-10.31,.58-.86,2.4-2.54,5.44-5.06l1.02-.81c-.09-.09-.39-.07-.88,.07-.77,.41-1.79,.73-3.06,.95-2.2,.36-4.55,.36-7.03,0-1.9-.27-3.84-.92-5.84-1.95-.09-.05-.17-.07-.21-.07-2.15-1.07-4.22-1.69-6.2-1.83-3.31-.27-6.72,.12-10.24,1.16-3.5,1.01-6.7,2.56-9.62,4.63-2.15,1.58-3.89,3.32-5.2,5.2C.82,54,.11,55.86,.02,57.65c-.14,2.5,.62,4.51,2.28,6.03,2.52,2.34,6.22,3.21,11.09,2.59,4.59-.55,8.7-2.15,12.33-4.8,1.46-1.03,2.78-2.28,3.99-3.75,1.04-1.22,1.62-2.11,1.73-2.66,.19-.27,.24-.48,.14-.64l-.24-.21-.14,.14c-1.32,2.25-3.14,4.2-5.49,5.87-3.67,2.63-7.66,4.29-11.95,4.96-4.76,.78-8.41,0-10.93-2.35-1.25-1.16-1.83-2.73-1.73-4.73,.27-3.64,2.58-7.03,6.94-10.17,2.77-2.01,5.88-3.48,9.33-4.42,3.4-.9,6.69-1.17,9.83-.8,1.2,.18,2.61,.5,4.23,.98,.55,.14,1.21,.35,1.97,.62,.57,.14,1.2,.33,1.88,.55,1.46,.46,3.11,.85,4.94,1.16,1.84,.32,3.36,.32,4.56,0h.28l.33-.07,.07,.17-.54,.4c-1.66,.95-3.64,3.75-5.94,8.39-.22,.41-1.16,2.4-2.83,5.96-1.01,2.3-1.93,4.29-2.76,5.96-1.06,2.2-1.93,3.84-2.61,4.9-.87,1.34-1.31,2.17-1.31,2.5l.07,.07,.07,.14c.32,.39,1.44-.02,3.37-1.24,.14-.09,.28-.17,.4-.24,2.34-1.72,6.45-6.49,12.33-14.3l1.61-2.02c-.73,1.61-1.07,2.42-1.02,2.42l-7.05,14.82c-.14,.39-.21,.64-.21,.73l.07,.21,.28,.07c.27,.02,.64-.06,1.12-.21,1.57-.59,2.92-1.45,4.06-2.59,.32-.3,.77-.8,1.35-1.47h0Z"/>
    <path class="b" d="M101.01,71.23c-.27,0-.56,.12-.88,.36-1.79,1.43-3.72,2.06-5.8,1.92-.49,0-.92-.25-1.28-.74-.47-.79-.43-1.78,.14-2.97l.54-1.19c5.51-12.31,8.84-19.08,9.98-20.33,3.9-4.23,7.89-5.98,11.97-5.25,1.97,.36,3.2,1.05,3.66,2.07,.38,.93,.51,1.86,.38,2.78-.24,1.16-.93,2.47-2.09,3.94-.84,1.09-2.23,2.09-4.18,2.99-1.93,.89-3.73,1.35-5.39,1.4-1.11,.09-1.78,.23-1.99,.4l-.07,.21c.13,.32,.8,.43,2.04,.33,1.73-.09,3.51-.6,5.35-1.5,1.84-.84,3.39-1.94,4.65-3.3,.82-.8,1.52-1.76,2.09-2.9,1-1.93,1.06-3.57,.19-4.89-1.65-2.71-5.03-3.38-10.14-2.02-2.66,.68-5.2,2.31-7.62,4.9-2.03,2.17-3.71,4.69-5.04,7.58-4.54,10.44-6.84,15.7-6.88,15.8l-.07,.07v.07c-.22,.18-.73,.45-1.52,.81-.63,.36-1.51,.7-2.64,1-1.17,.27-2.09,.38-2.76,.33-.63-.06-1.08-.32-1.35-.79-.36-.54-.36-1.35,0-2.44l6.53-16.01c.36-.9,1.2-2.21,2.5-3.92,1.36-1.83,2.52-3.12,3.49-3.84,2.17-1.47,4.77-2.16,7.81-2.07h.14l.27-.07c.09-.14,0-.35-.27-.62-.24-.16-.82-.21-1.76-.14-1.38,.14-3.03,.62-4.96,1.43-1.99,.82-4.02,2.38-6.06,4.68-1.63,1.79-2.78,3.38-3.44,4.78-.51,1.16-2.5,5.71-5.96,13.66l-.02,.12c-.24,.68-.42,1.12-.55,1.33-.19,.26-.51,.57-.95,.95l-.14,.14c-2.15,1.93-4.27,2.87-6.34,2.83-.33,0-.62-.13-.85-.4-.27-.26-.4-.61-.4-1.07l.07-.12c.09-.6,.88-2.64,2.35-6.13,.9-2.07,1.69-3.14,2.35-3.18,.78-.13,1.3-.4,1.57-.8-.27-.26-.84-.38-1.71-.38-.27,0-.98,.15-2.14,.45l-1.24,.26c-.22-.08-.39-.14-.5-.19-.82-.55-1.97-.83-3.44-.83-2.52-.01-5.13,1.25-7.84,3.78-.36,.36-.7,.71-1,1.02-1.38,1.39-2.23,2.5-2.54,3.3-.19,.55-.6,1.09-1.24,1.61-.33,.27-1.59,.77-3.77,1.5-1.25,.41-2.82,.88-4.7,1.4-.22,.09-.44,.26-.67,.47,0,.13,.4,.19,1.21,.19,.46,0,1.84-.43,4.16-1.28,1.14-.41,2.51-.93,4.13-1.54l.33-.12,.14,.34c0,.46,.29,1.11,.88,1.95,.57,.76,1.26,1.29,2.06,1.59,.41,.16,.88,.24,1.38,.24,1.95,.05,3.67-.34,5.18-1.16,.74-.4,1.3-.82,1.66-1.28l.47-.52,.14,.76s.18,.33,.54,.86c.62,.54,1.59,.83,2.9,.88,1.47,0,3.7-1.05,6.7-3.16l.55-.4v.67s.23,.54,.55,1.47c.58,.95,1.48,1.45,2.68,1.5,2.71,.09,5.21-.61,7.5-2.11l.47-.24,.02,.55s.18,.36,.55,.93c.68,.54,1.72,.83,3.11,.88,2.37,.05,4.79-.94,7.24-2.97l.38-.26-.45-.28h-.38v-.03Zm-32.18-.33v.07l-.05,.07c-2.34,2.11-4.3,3.07-5.87,2.9-1.16-.09-2.05-.55-2.68-1.38-.19-.2-.33-.42-.43-.64-.32-.73-.38-1.61-.19-2.66,.05-.3,.11-.59,.19-.85,.51-1.84,1.43-3.28,2.78-4.32,1.06-.89,2.64-1.62,4.75-2.21,1.8-.47,3.07-.25,3.8,.69,.63,.63,.79,1.32,.47,2.07l-2.78,6.27h0Z"/>
    <path class="b" d="M128.4,64.7c-.47,1.2-.92,2.33-1.33,3.38-.39,1-.73,1.89-1.02,2.68-.27,1.09-.18,1.92,.28,2.5,.18,.27,.42,.51,.73,.73,.78,.46,1.9,.66,3.38,.62,1.71-.09,3.95-1.04,6.72-2.83,.13-.13,.28-.24,.47-.33l.4-.28,.14,.48s.16,.25,.33,.62c.14,.26,.33,.59,.54,1,.78,1.04,1.79,1.59,3.04,1.64,2.63,.02,5.2-1.18,7.72-3.58,2.11-2.06,3.23-3.83,3.37-5.32,.09-1.33-.25-2.46-1.02-3.38-.89-1.01-2.11-1.6-3.68-1.76-.95-.09-1.87,0-2.76,.31l-1.02,.38-.95,.6,2.83-6.94c1.72-4.23,4.17-7.34,7.32-9.34,2.04-1.31,4.21-2.07,6.51-2.28,2.41-.27,4.11,.33,5.11,1.8,.89,1.3,.81,2.93-.21,4.89-.97,1.93-3.03,3.42-6.17,4.46-2.91,.66-4.4,1-4.46,1-.89,.09-1.43,.28-1.61,.55l.07,.14c.05,.08,.33,.14,.85,.19,.59,0,1.2-.06,1.85-.19,2.55-.41,4.68-1.16,6.39-2.23,1.39-.86,2.72-2.09,3.99-3.71,.43-.58,.71-1.34,.85-2.28,.13-1.09-.02-2.06-.45-2.9-.87-1.74-2.94-2.57-6.2-2.5-3.7,.14-7.13,1.69-10.26,4.63-2.2,2.12-4.1,4.75-5.7,7.88-1.66,3.11-3.64,7.66-5.94,13.68-.13,.36-.26,.72-.4,1.09l-.07,.02-1.73,1.16c-.55,.41-1.57,.88-3.04,1.4-1.43,.54-2.5,.83-3.23,.88-.59,0-1.04-.19-1.35-.57-.36-.51-.46-1.14-.28-1.9l2.73-7.03c.2-.7,.13-1.34-.24-1.95-.4-.65-1.08-1.02-2.07-1.12-.46-.06-1.05-.01-1.76,.14-.76,.11-1.63,.37-2.61,.79-.05,.05-.09,.07-.14,.07l-.62,.19c-.32,.05-.63-.14-.95-.55l-.09-.19c-.06-.09-.32-.19-.76-.29-.59-.06-1.11-.04-1.57,.07-.44,.14-.66,.3-.66,.47l.17,.21c.33,.27,.36,.75,.09,1.43v.14c-.07,.27-.57,1.38-1.52,3.32-.93,1.88-1.5,3.01-1.71,3.37l-.14,.14c-.52,.31-1.16,.68-1.92,1.09-.55,.32-1.17,.63-1.85,.95-1.95,1.03-4.11,1.45-6.51,1.26-.7-.09-1.19-.54-1.5-1.33-.11-.46-.14-.96-.09-1.5,0-.59,.08-.95,.24-1.09l.24-.07h.17c.68,.24,1.99,0,3.92-.71,2.57-.95,4.36-2.14,5.39-3.56,.08-.14,.14-.26,.19-.36,.51-.84,.48-1.76-.07-2.76-.05-.09-.09-.16-.12-.19-.6-.82-1.59-1.24-2.97-1.24-1.88,0-3.75,.68-5.58,2.04-1.57,1.11-2.77,2.39-3.59,3.85-.52,.93-.8,1.91-.85,2.92-.06,.51-.04,.92,.07,1.24l.14,.62h0l.02-.07,.21,.47c0,.36,.29,.85,.88,1.47,.87,.95,1.95,1.45,3.23,1.5,2.8,.01,5.61-.73,8.43-2.25,.18-.11,.35-.21,.52-.31l.83-.47-.28,.85c-.18,.73-.18,1.2,0,1.43,.09,.14,.22,.21,.38,.21,.63,.05,1.11-.07,1.43-.36,.28-.22,.56-.63,.83-1.21l.64-1.47c2.09-4.82,3.26-7.38,3.51-7.7,.27-.3,.93-.61,1.97-.92,.63-.22,1.37-.42,2.21-.59,.14-.05,.27-.07,.4-.07,.71-.14,1.23-.03,1.54,.33,.32,.32,.36,.81,.15,1.5l-.36,.85v.02Zm12.22,5.45v.07c.4-1.52,1.19-3.62,2.37-6.29,.11-.41,.87-.89,2.28-1.43,1.38-.55,2.45-.71,3.23-.47,2.14,.68,2.95,2.28,2.42,4.8-.59,2.86-1.94,4.81-4.06,5.82-3.09,1.58-5.08,1.48-5.98-.31-.27-.45-.4-.93-.4-1.43,0-.41,.05-.67,.14-.76Zm-35.63-2c0-.41,.16-1.01,.48-1.8,.49-1.27,1.2-2.23,2.14-2.9,.77-.59,1.59-1.02,2.45-1.31,1.03-.35,1.77-.35,2.23,0,.54,.41,.6,1.2,.19,2.35-.59,1.55-1.71,2.72-3.37,3.51-1.57,.46-2.38,.69-2.42,.69l-1.43-.15-.33-.07,.07-.33h0Z"/>
    <path class="b" d="M116.82,30.81h-.07c0,.08,.02,.12,.07,.14v-.14Z"/>
    <path class="b" d="M225.77,53.76c-1.34-2.85-5.17-7.17-15.83-4.15-10.19,2.89-12.88,10.7-12.89,10.76-.11,.42-.08,.92-.58,1.14h0c-.18,.06-.3,.11-.33,.17-.18,.24-.36,.36-.54,.36-.27,0-.46-.09-.57-.28-.05-.13-.26-.26-.62-.4-.49-.16-1.04-.21-1.64-.17-.89,.06-1.91,.3-3.07,.71-2.34,.81-4.23,1.98-5.68,3.51-1.52,1.65-2.33,3.3-2.42,4.96l.14,.88v.07l-.07,.21h-.07l-.62,.4c-.16,.17-1.12,.49-2.89,.95-1.38,.39-2.3,.63-2.76,.71-.21,.24-.31,.37-.31,.4,.16,.09,1.05,0,2.66-.27,1.53-.32,2.79-.83,3.77-1.54l.28-.19,.19,.33,1.24,1.26c1.01,.82,2.04,1.24,3.09,1.24,1.52,.05,2.75-.25,3.68-.88,.24-.14,.42-.14,.54,0l.22,.19-2.57,6.13c-2.95,6.21-7.08,9.24-12.4,9.1-1.2-.05-2.09-.2-2.68-.47-.41-.22-.9-.66-1.47-1.33l-.4-.4c-.27-.32-.5-.48-.69-.48-.22,.06-.33,.23-.33,.5,0,.05,.27,.53,.8,1.45,.93,.85,2.52,1.31,4.77,1.35,3.44,.05,6.56-1.07,9.38-3.38,1.79-1.5,3.34-3.35,4.65-5.56,.3-.57,1.14-2.38,2.52-5.44,1.41-3.09,3.32-7.46,5.75-13.11l.07-.21c.09-.27,.12-.45,.07-.55-.71-.53-.5-1.2-.4-1.51l.07-.22c1.56-4.99,6.86-7.55,11.31-9.22,3.26-1.23,8.66-1.57,12.23,.21,1.75,.87,2.88,2.14,3.38,3.79,1.48,4.93-2,8.78-10.32,12.23-4.93,2.04-9.93,1.8-12.22,1.21-1.23-.31-1.89-.61-2.01-.37v.05c0,.27,.41,.71,1.85,1.12,3.44,.98,8.42,.65,12.71-.98,7.3-2.78,10.21-6.9,11.08-9.05,.77-1.9,.55-3.82-.1-5.23h0Zm-30.68,10.41c-.05,.46-1.17,2.94-3.37,7.43l-.07,.05v.07l-.07,.07c-1.66,1.4-3.18,2.07-4.54,2.02-.79-.05-1.45-.41-1.99-1.09-.62-.75-.9-1.87-.86-3.38,.02-2.5,1.34-4.49,3.94-5.96,1.34-.78,2.73-1.3,4.16-1.57,.82-.18,1.53-.04,2.11,.4,.52,.55,.75,1.2,.69,1.95h0Z"/>
  </g>
  <g>
    <g>
      <path class="b" d="M185.12,104.12c-.06-.14-.19-.22-.49-.22l-1.4,.97c-.4,.3-1.22,.68-2.42,1.14-1.14,.42-1.98,.63-2.51,.63-.46,0-.8-.13-1.02-.4-.25-.36-.31-.83-.2-1.39l2.16-5.65c.19-.64,.14-1.21-.16-1.71-.32-.54-.92-.87-1.79-.97-.12-.02-.26-.03-.4-.03-.8,0-1.9,.3-3.28,.89l-.53,.15c-.19,0-.4-.15-.61-.39l-.09-.21c-.05-.05-.14-.1-.68-.19-.25-.05-.48-.08-.71-.08s-.44,.02-.64,.08c-.37,.13-.55,.3-.54,.58l.14,.21c.12,.09,.17,.25,.16,.46l-.36-.29,.05,.32c.08,.51-.15,.83-.71,1.01-.15,.05-.32,.07-.5,.07-.71,0-1.66-.39-2.78-1.12l-.16-.18c-.1-.34-.32-.63-.63-.89-.63-.57-1.52-.89-2.66-.94-1.76,0-3.41,1.04-4.9,3.09-.09,.11-.18,.24-.26,.36-.12,.16-.23,.33-.32,.5-.32,.49-.61,1.01-.88,1.55l-.11,.23-.11,.28c-.06,.12-.12,.26-.16,.38-.04,.07-.08,.15-.13,.24-.09,.21-.14,.42-.15,.63-.04,.22-.07,.45-.09,.69-.04,.24-.04,.63,.05,1.1-.19,.15-.35,.27-.54,.4-1.03,.72-2.09,1.08-3.13,1.08-.14,0-.27,0-.44-.02-.7-.1-.85-.27-.89-.38-.2-.31-.29-.77-.27-1.34,.04-.7,.21-1.38,.54-2.02l.56-1.24,1.74-4.02c.37-.78,.38-.97,.27-1.07-.15-.14-.18-.18-.24-.22-.13-.06-.31-.08-.55-.08-.11,0-.24,0-.38,.02-1.96,.2-2.23,.45-2.21,.78l.15,.19c.1,.08,.19,.18,.27,.31,.08,.17,.09,.39,.07,.64-.06,.23-.3,.93-1.15,2.92h0c-.04,.08-.08,.16-.09,.22-.51,1.12-.86,1.88-1.07,2.31l-.11,.26c-.05,.15-.09,.29-.08,.36-.4,.52-1.04,.97-1.89,1.34-1.29,.69-2.57,1.04-3.78,1.04-.55,0-.93-.18-1.15-.55-.19-.27-.27-.53-.21-.76l.14-.83,2.53-6.49,1.88-.25c.57-.05,.74-.36,.78-.67l-.1-.29c-.18-.17-.48-.25-.92-.25-.59,0-.64-.23-.66-.34l.09-.36,.69-1.54c.69-1.58,2-3.11,3.82-4.51h.27l.07-.59-.12-.16h-.1c-.12,0-.36,.05-1.13,.52-1.96,1.41-3.5,2.94-4.59,4.56l-1.03,2.05v.07l-.9,.21c-.68,.07-1.05,.33-1.08,.77-.04,.22,.01,.53,.56,.72,.18,.04,.18,.09,.19,.18l.03,.05-.03,.02-1.97,5.02c-2.21,1.9-3.71,2.93-4.47,3.05-.44,.07-.78,.1-1.04,.1-.32,0-.42-.05-.45-.08-.05-.04-.19-.24-.05-1.35,.09-.49,.64-2.09,1.64-4.75,.77-2.02,1.25-2.37,1.46-2.41,.57-.09,.97-.29,1.22-.61l.07-.09-.08-.08c-.25-.27-.68-.4-1.28-.4-.12,0-.4,.04-1.48,.36l-.78,.25c-.14-.08-.27-.14-.35-.16-.58-.41-1.39-.62-2.53-.63-1.7,0-3.49,.98-5.33,2.93-1.34,1.4-2.16,2.5-2.44,3.26-.34,.53-.47,1.23-.36,2.14,0,.18,.05,.4,.16,.64-1.19,.77-2.42,1.16-3.65,1.16-.16,0-.33,0-.5-.02-.36,0-.66-.15-.9-.44-.34-.66-.3-1.4,.11-2.27l.4-.9c1.1-2.41,2.1-4.52,2.99-6.36,.34-.8,.68-1.6,1.04-2.4l.67-1.58,.36-.91c.19-.39,.39-.78,.6-1.18,.97-2.1,2.09-3.8,3.34-5.04,.47-.43,.95-.8,1.44-1.12,.31-.26,.66-.47,1.03-.64,1.24-.56,2.49-.87,3.73-.93h.27c.99,0,1.84,.18,2.54,.57,.13,.03,.24,.05,.33,.05,.24,0,.35-.11,.38-.19,.18-.27,.06-.61-.38-1.01-.3-.18-.93-.28-1.98-.31h-1.04c-1.48,.04-2.89,.33-4.18,.86-.28,.12-.56,.27-.82,.42-1.05,.53-2.03,1.24-2.93,2.11-1.13,1.15-2.18,2.58-3.15,4.24-.5,.76-.94,1.58-1.26,2.37-.18,.09-.21,.23-.2,.28-.32,.71-.6,1.4-.85,2.07l-.98,2.24c-.02,.07-.05,.14-.08,.21-.11-.05-.23-.09-.36-.13-.47-.17-1.04-.26-1.69-.28h-.46c-1.96,0-4.01,1-6.12,2.97-.27,.27-.54,.52-.83,.74-.98,.98-1.62,1.8-1.88,2.41-.4,.63-.56,1.35-.49,2.17l.05,.17c0,.29,.13,.68,.38,1.15-.42,.22-.97,.44-1.63,.63-.56,.14-1.16,.21-1.76,.21-.37,0-.67-.15-.91-.45-.22-.3-.28-.73-.18-1.28l2.14-5.59c.11-.54,.03-1.06-.24-1.54-.26-.6-.83-.94-1.69-1-.14-.02-.29-.04-.45-.04-.78,0-1.84,.28-3.15,.84l-.45,.19c-.21,0-.41-.14-.59-.4l-.22-.31c-.06,0-.25-.03-.56-.09-.24-.07-.47-.1-.68-.1s-.42,.04-.57,.1c-.52,.09-.63,.34-.58,.62l.11,.09c.23,.17,.25,.53,.07,1.07-.05,.15-.31,.71-1.3,2.62-.47,1.05-.81,1.81-1.04,2.29l-.67,1.67c-.46,.25-.98,.52-1.57,.78-.46,.2-.91,.31-1.35,.31-.41,0-.81-.09-1.16-.24-.3-.35-.4-.69-.3-1.05,.09-.39,.56-1.47,1.39-3.21l1.81-3.81c.52-.52,.41-.88,.21-1.11-.17-.16-.39-.23-.66-.23-.16,0-.33,.03-.51,.08-.5,.13-.9,.41-1.23,.87l-2.15,5.27c-.37,.72-.74,1.26-1.09,1.59-.22,.18-.71,.45-1.45,.81l-.43,.15c-.61,.31-1.12,.47-1.51,.47-.09,0-.18,0-.26-.02-.43-.1-.71-.35-.88-.76-.13-.3-.02-1.27,1.23-4.18,.92-2.1,1.48-3.46,1.64-4.02,.03-.15,.01-.27-.06-.36-.1-.13-.3-.2-.61-.2-.45,0-1.13,.14-2.09,.42l-.94,.42,.62,.66c.08,.07,.14,.13,.19,.2-.06,.42-.34,.63-.86,.63-.62,0-1.55-.28-2.72-.8l-.09-.23c-.18-.27-.4-.55-.67-.88-.64-.56-1.57-.85-2.86-.87-1.17,0-2.32,.43-3.35,1.25-.36,.26-.69,.54-1.33,1.2-.25,.27-.5,.57-.73,.89-.9,1.25-1.38,2.48-1.42,3.66-.05,1.19,.06,2.09,.32,2.74,.26,.63,.58,1.14,.95,1.49,.29,.29,.72,.44,1.29,.44,.17,0,.36-.01,.55-.04,3.44-.38,5.72-2.77,6.76-7.09l.14-.24c.11-.51,.4-.74,.89-.74,.23,0,.51,.05,.83,.16,.46,.15,.89,.22,1.26,.22s.69-.07,.97-.22c-.92,2.33-1.51,3.78-1.76,4.32-.25,.6-.24,1.33,.07,2.21l.3,.41c.56,.56,1.18,.88,1.83,.94h.15c1.12,0,2.62-.56,4.48-1.69l.23-.15c.09,.33,.24,.65,.45,.96,.42,.45,1.09,.7,1.98,.74,.08,0,.16,.02,.24,.02,.71,0,1.65-.4,2.86-1.21-.09,.5-.07,.81,.08,.96,.09,.14,.23,.21,.39,.21,.6,0,.99-.11,1.21-.33,.22-.22,.42-.56,.62-1.04l.6-1.14c1.91-4.64,2.52-5.81,2.69-5.98,.23-.21,.97-.57,3.19-1.06,.33-.12,.61-.18,.83-.18,.25,0,.43,.07,.56,.22,.24,.24,.29,.6,.16,1.09l-.31,.61c-.8,1.94-1.43,3.56-1.89,4.82-.23,.86-.12,1.55,.3,2.04,.46,.78,1.43,1.17,2.91,1.17h.35c.94-.09,2.02-.64,3.21-1.63,.04,.06,.08,.13,.12,.2,.49,.59,1.07,1.01,1.7,1.25,.37,.14,.77,.21,1.18,.21,1.51,0,2.88-.32,4.07-.96,.25-.13,.47-.26,.69-.39,.09,.17,.21,.36,.4,.62,.57,.41,1.43,.66,2.54,.73,1.33,0,2.83-.66,4.48-1.96,.07,.13,.16,.27,.25,.41,.6,.97,1.43,1.45,2.46,1.45,.12,0,.24,0,.36,0,1.21,0,2.31-.3,3.26-.89,.55-.31,.96-.64,1.2-.98l.15-.18,.07,.21c0,.06,.02,.17,.34,.75,.36,.71,.98,1.07,1.81,1.07,.13,0,.26,0,.4-.02,.86-.1,2.55-1.22,5.16-3.41l-.09,.5c-.04,.42-.02,.85,.04,1.28,.06,.45,.36,.89,.88,1.3,.33,.26,.89,.38,1.7,.38,.45,0,.98-.04,1.59-.12,1.41-.18,3.07-1.07,4.95-2.62,.02,.07,.04,.14,.07,.21,.29,.76,.62,1.32,.95,1.63,.08,.09,.18,.18,.28,.26,.18,.12,.38,.24,.61,.36,.39,.15,.82,.25,1.3,.28,1.06,0,2.03-.29,2.89-.83,.63-.4,1.15-.75,1.58-1.05,.07,.11,.15,.22,.23,.33l.28,.37c.22,.22,.45,.43,.7,.61,.09,.08,.19,.15,.36,.25,.26,.17,.51,.29,.78,.37,.23,.07,.46,.1,.7,.1,.16,0,.31-.01,.46-.05,.09,0,.17-.01,.26-.02,3.13-.54,5.18-2.97,6.12-7.23l.07-.24c.07-.24,.22-.47,.46-.69,.16-.16,.27-.21,.36-.21,.02,0,.04,0,.06,0,.5,.35,1.05,.52,1.63,.52,.32,0,.67-.05,1.01-.16,.26-.08,.51-.18,.76-.31-.21,.45-.52,1.07-.91,1.86l-1.38,2.77-.76,2.04c-.18,.62-.18,1.03,.01,1.23,.06,.09,.18,.2,.42,.2h0c.1,0,.2,.01,.29,.01,.4,0,.72-.09,.96-.28,.25-.22,.47-.57,.68-1.07l.54-1.16c1.98-4.77,2.62-5.99,2.81-6.19,.2-.24,.93-.64,3.24-1.16,.31-.1,.57-.15,.79-.15,.29,0,.5,.09,.64,.28,.22,.25,.27,.6,.16,1.05l-.31,.71c-.79,1.93-1.43,3.6-1.91,4.98-.23,.87-.14,1.57,.25,2.08,.52,.76,1.59,1.15,3.18,1.15h.23c1.5-.11,3.47-.99,5.85-2.59l.34-.21c.3-.37,.41-.63,.33-.83h0Zm-108.76-1.8c-1.26,2.56-2.75,3.86-4.42,3.86-.08,0-.17,0-.26,0-.35,0-.7-.26-1.04-.76-.31-.46-.45-1.13-.39-2.01,0-.8,.17-1.61,.48-2.42,.36-.93,.95-1.77,1.79-2.5,.13-.13,.27-.25,.41-.36,.68-.56,1.37-.84,2.05-.84,.09,0,.18,0,.28,.01,.54,0,.95,.21,1.26,.64l.03,.05s.03,.06,.04,.09c.24,.54,.35,1.23,.34,2.04-.11,.88-.3,1.62-.57,2.21h0Zm39.63,1.5c-.2,.56-.59,1.09-1.16,1.6-.58,.54-1.4,.87-2.4,1-.75-.11-1.37-.4-1.82-.85-.73-.72-.89-1.79-.48-3.19,.43-1.45,1.18-2.58,2.27-3.36,.74-.68,1.96-1.21,3.62-1.59,.41-.14,.79-.21,1.14-.21h.14c.61,0,1.05,.21,1.34,.53-.25,.5-.39,.79-.42,.88-1.14,2.59-1.88,4.32-2.23,5.19h0Zm16.99-4.49l-1.97,4.93c-1.41,1.47-2.62,2.21-3.6,2.21-.08,0-.15,0-.23-.01-.75-.11-1.34-.43-1.76-.94-.37-.61-.48-1.45-.33-2.5,.22-1.67,.89-2.95,1.97-3.83,.7-.68,1.76-1.27,3.15-1.74,.4-.11,.76-.17,1.08-.17,.61,0,1.06,.2,1.37,.62,.36,.45,.46,.92,.32,1.44h-.01Zm30.55,3.02c-1.15,2.62-2.51,3.95-4.06,3.95-.1,0-.21,0-.34-.02-.41-.08-.77-.32-1.06-.71-.07-.1-.12-.21-.17-.36-.18-.48-.27-1.07-.27-1.77,0-.66,.08-1.31,.23-1.93,.04-.18,.08-.34,.14-.49,.24-.66,.58-1.28,1.03-1.85,.2-.27,.43-.52,.68-.77,.83-.83,1.67-1.25,2.49-1.25h.14c.52,0,.93,.24,1.25,.71,.3,.52,.45,1.29,.45,2.27-.06,.89-.24,1.63-.54,2.23h0Z"/>
      <path class="b" d="M153.89,90.77c-.28,0-.63,.08-1,.22-.6,.18-1.01,.49-1.25,.95l-.07,.46,.07,.19c.15,.45,.5,.69,1.01,.69,.27,0,.59-.07,.98-.2,.64-.29,1.03-.62,1.21-1,.09-.29,.12-.51,.07-.69-.18-.42-.53-.63-1.01-.63h0Z"/>
    </g>
    <path class="b" d="M47.2,111.33c-.44,.03-.92,0-1.42-.07-1.2-.18-2.19-.56-2.94-1.13-.33-.2-.57-.44-.72-.73-.53-.58-.81-1.29-.87-2.14-.18-1.31,.45-2.7,1.87-4.12,1.29-1.5,2.99-2.51,5.07-3.01,.3-.06,.59-.09,.88-.11,1.81-.12,3.16,.52,4.04,1.89,.25,.63,.4,1.38-.25,2.47-.24,.51-.5,.76-.79,.78-.09,0-.18-.01-.28-.06h-.01v-.02c.28-.52,.5-1.01,.64-1.48,.05-.85-.1-1.56-.46-2.1-.38-.45-1.02-.64-1.91-.58-.3,.02-.64,.07-1,.15-1.47,.23-2.77,.74-3.85,1.52-1.11,.64-1.93,1.36-2.45,2.14-.57,.76-.85,1.48-.83,2.13,0,.47,.09,.9,.27,1.29,.02,.03,.05,.08,.06,.2,.28,.7,.87,1.21,1.69,1.5,1.17,.25,2.11,.36,2.81,.35,.24,0,.48-.02,.73-.03,.53-.03,1.06-.09,1.59-.16,.84-.16,1.92-.58,3.22-1.26,1.38-.72,2.64-1.76,3.75-3.08,1.2-1.2,1.75-2.19,2.76-4.04l.05-.08c.59-.92,.85-1.34,1.51-2.56l.08-.15-.17-.03c-1.4-.25-2.1-.55-2.13-.91-.03-.37,.62-.78,1.98-1.25,.39,.09,.78,.17,1.19,.24h.09l.04-.08c.09-.21,.52-1.04,.71-1.39l.63-1.26c.7-1.17,1.37-2.3,2.03-3.4,.7-1.27,1.41-2.52,2.23-3.72,1.2-1.68,2.43-3.23,3.8-4.61l.19-.23-.27-.03c-.07,0-.15-.01-.22-.02-.24-.07-.51-.13-.83-.18l-2.39-.46c-1.35-.31-2.57-.54-3.62-.67-.99-.21-2.45-.36-4.33-.43h-.37c-.56,0-1.15,.04-1.75,.14-1.04,.07-2.04,.25-2.99,.54-1.69,.5-3.09,1.19-4.16,2.06-1.22,.81-2.22,1.72-2.97,2.68-.64,1.06-.99,2.19-1.03,3.37-.04,1.34,.33,2.32,1.1,2.94,.83,.81,2,1.26,3.47,1.31h.23c1.09,0,2.19-.18,3.28-.53,1.18-.31,2.32-.85,3.37-1.61,.62-.33,1.21-.71,1.74-1.13,.48-.45,.98-.96,1.5-1.5,1.1-1.13,2.05-2.36,2.85-3.66,.14-.32,.27-.47,.41-.47s.27,.15,.41,.47c-.67,1.45-1.5,2.79-2.53,4.11-.32,.39-.62,.76-.89,1.09-.74,.7-1.51,1.29-2.27,1.74-1.18,.89-2.46,1.52-3.81,1.86-1.33,.4-2.59,.6-3.78,.6-.14,0-.29,0-.43,0-1.82-.05-3.23-.54-4.22-1.44-1.04-1.01-1.53-2.3-1.46-3.84,.04-1.27,.48-2.58,1.32-3.89,.72-1.1,1.81-2.19,3.24-3.24,1.4-.91,3.16-1.7,5.22-2.35,.73-.18,1.54-.36,2.45-.51,.97-.15,2.05-.23,3.22-.23,.4,0,.81,0,1.21,.02,1.4,.05,2.86,.16,4.33,.3,1.63,.25,2.84,.46,3.7,.63,0,0,2.33,.45,3.66,.72,.16,.02,.3,.04,.42,.06,1.3,.18,2.57,.3,3.78,.38,1.27,.12,3.26,.19,6.07,.22h.24c2.67,0,5.51-.42,8.44-1.25,.53-.16,.76-.28,.99-.4,.16-.08,.33-.17,.58-.27,.73-.29,1.22-.44,1.48-.44,.12,0,.2,.03,.21,.1,.06,.25-.69,.86-.93,.98-.56,.24-1.36,.61-2.2,.98-1.93,.88-4.8,1.42-8.76,1.65-1.37,.08-2.68,.12-4.01,.12-1.49,0-2.7-.05-3.59-.09l-.64-.02-1.4-.03h-.53l-.61-.09s-.18-.1-.21-.05h-.04s-.11,0-.16-.01l-.16-.02c-.08,0-.18,0-.25-.02h-.06l-.05,.03c-1.01,.99-1.87,2.28-2.75,3.72-.73,1.17-1.44,2.6-2.12,4.23-.4,.81-.77,1.68-1.11,2.57-.31,.74-1,2.07-1.56,3.13-.22,.42-.42,.8-.57,1.11l-.07,.13,.14,.04c1.07,.29,2.31,.4,3.69,.31,.97-.06,1.96-.2,3.1-.36l.31-.04c.61-.09,1.34-.28,1.73-.38-.27,.25-.51,.51-.8,.83l-.23,.25c-1.71,.41-5.57,.99-8.2,1.16l-.73,.04-.03,.06c-3.4,6.65-6.57,9.64-12.2,11.33-.89,.36-1.92,.58-3.06,.69-.12,.02-.25,.03-.38,.04l.02,.03Z"/>
  </g>
</svg>