<svg width="362" height="115" viewBox="0 0 362 115" fill="none" xmlns="http://www.w3.org/2000/svg">
<mask id="mask0_20_24" style="mask-type:luminance" maskUnits="userSpaceOnUse" x="0" y="0" width="362" height="115">
<path d="M361.07 0.129997H0.879883V114.88H361.07V0.129997Z" fill="white"/>
</mask>
<g mask="url(#mask0_20_24)">
<path d="M52.9999 51.97C52.3599 54.14 51.5699 56.66 48.4599 59.52C45.6499 62.09 41.0099 65 32.1199 65C19.7299 65 11.1399 58.53 11.1399 46.34C11.1399 33.21 21.6099 27.88 32.6199 27.88C36.6199 27.88 47.1199 28.82 51.7499 37.18L43.0399 39.93C42.0999 38.45 39.3299 34.6 32.5599 34.6C24.6599 34.6 20.2299 39.77 20.2299 46.44C20.2299 54.04 26.2599 58.09 32.8699 58.09C40.4199 58.09 42.6899 54.14 43.8299 52.02L53.0099 51.97H52.9999ZM11.1299 46.34C11.1299 33.21 21.5999 27.88 32.6099 27.88Z" fill="#1D1D1B"/>
<path d="M56.8098 28.96H65.5498V42.39H86.1998V28.96H94.9398V63.82H86.1998V48.86H65.5498V63.82H56.8098V28.96Z" fill="#1D1D1B"/>
<path d="M115.93 28.96H125.36L142.2 63.82H132.42L128.96 56.21H111.98L108.61 63.82H99.0798L115.92 28.96H115.93ZM121.46 39.67C121.21 39.23 121.02 38.74 120.87 38.29C120.72 37.84 120.62 37.4 120.57 36.91C120.42 37.35 120.32 37.75 120.22 38.15C120.02 38.59 119.87 39.04 119.68 39.48L114.81 50.03H126.06L121.45 39.67H121.46Z" fill="#1D1D1B"/>
<path d="M146.69 28.96H155.43V57.4H173.03V63.82H146.69V28.96Z" fill="#1D1D1B"/>
<path d="M178.29 28.96H190.88L199.97 50.29C200.91 52.56 201.25 53.5 201.75 55.47C202.1 53.99 202.39 53.1 203.38 50.68L212.47 28.96H224.96V63.82H216.72V39.43C216.72 38.4 216.87 37.5 217.06 36.17C216.72 37.21 216.57 37.6 216.07 38.84L205.65 63.82H197.7L187.28 39.33C186.73 38 186.63 37.6 186.24 36.17C186.39 37.65 186.44 37.95 186.54 39.28V63.82H178.29V28.96Z" fill="#1D1D1B"/>
<path d="M233.03 28.96H265.52V35.23H241.77V43.08H262.68V49.25H241.77V57.6H266.51V63.82H233.03V28.96Z" fill="#1D1D1B"/>
<path d="M320.82 53.19C322.87 57.35 327.87 58.55 332.62 58.46C334.74 58.43 341.4 57.96 341.32 53.72C341.28 51.2 338.85 50.65 336.97 50.34C335.54 50.07 328.36 49.1 326.72 48.84C323.5 48.31 315.38 46.91 315.24 39.02C315.21 37.29 315.67 35.51 316.53 34.06C319.36 29.32 325.76 27.97 331.29 27.88C336.37 27.79 340.28 28.46 343.92 30.38C347.51 32.24 349.08 34.78 349.8 35.91L341.54 38.13C341.23 37.59 340.52 36.32 338.43 35.32C336.09 34.22 333.07 34.08 331.4 34.11C327.55 34.18 323.61 34.99 323.67 38.29C323.71 40.56 325.74 41.12 328.37 41.67C329.81 41.94 336.94 43 338.57 43.32C342.63 43.99 349.52 45.35 349.65 53C349.85 64.21 337.29 64.84 332.2 64.91C326.47 64.99 317.55 64.18 312.9 55.42L320.81 53.21L320.82 53.19Z" fill="#1D1D1B"/>
<path d="M273.06 28.98H297.06C301.01 28.98 304.61 29.33 307.53 32.68C309.31 34.75 309.8 37.37 309.8 39.4C309.8 42.07 308.91 45.22 306.44 47.1C304.56 48.53 302.14 49.03 300.76 49.27L311.32 63.84H301.29L291.72 49.82H281.8V63.84H273.06V28.98ZM281.8 43.65H295.72C297.59 43.65 300.95 43.4 300.95 39.5C300.95 38.81 300.85 37.62 300.26 36.78C299.62 35.94 298.78 35.1 295.32 35.1H281.79V43.64L281.8 43.65Z" fill="#1D1D1B"/>
</g>
<mask id="mask1_20_24" style="mask-type:luminance" maskUnits="userSpaceOnUse" x="135" y="71" width="226" height="31">
<path d="M360.08 71.38H135.54V101.37H360.08V71.38Z" fill="white"/>
</mask>
<g mask="url(#mask1_20_24)">
<path d="M349.4 85.22C348.61 81.24 345.95 79.26 339.2 79.26C331.16 79.26 328.27 81.72 328.27 85.55C328.27 89.76 330.93 90.9 333.68 91.4C338.39 92.25 344.94 90.82 344.94 93.56C344.94 95.46 342.54 96.28 339.36 96.28C336.44 96.28 333.37 95.55 333.07 93.71H327.84C328.1 96.63 329.3 98.04 331.79 99.26C333.19 99.93 335.15 100.25 339.01 100.25C346.82 100.25 349.97 97.41 349.97 93C349.97 91.22 349.36 90.13 348.6 89.37C347.58 88.41 346.32 87.88 343.92 87.67C342.05 87.49 340.06 87.49 338.19 87.49C335.35 87.49 333.34 87.43 333.34 85.44C333.34 83.86 335.3 83.1 339.25 83.1C342 83.1 343.9 83.63 344.66 85.38L349.43 85.2L349.4 85.22ZM317.18 84.14C318.26 84.14 319.23 84.58 319.23 85.84C319.23 87.1 318.27 87.56 317.18 87.56H306.6V84.14H317.18ZM317.18 91.6C318.44 91.6 319.58 92.01 319.58 93.41C319.58 94.81 318.44 95.19 317.18 95.19H306.6V91.59H317.18V91.6ZM301.83 79.91V99.64H317.82C322.79 99.64 325.07 97.13 325.07 93.94C325.07 91.75 323.84 89.99 321.5 89.35C323.17 88.56 324.01 86.75 324.01 84.99C324.01 81.95 321.76 79.9 317.81 79.9H301.82L301.83 79.91ZM286.42 84.09L289.87 91.69H282.88L286.42 84.09ZM289.49 79.91H283.41L274.08 99.64H279.2L281.07 95.61H291.65L293.49 99.64H299.04L289.48 79.91H289.49ZM258.88 79.91H254.11V99.64H273.44V94.87H258.88V79.9V79.91ZM243.36 79.91H222.57V84.32H230.58V99.64H235.35V84.32H243.36V79.91ZM220.94 79.91H214.8L208.92 86.14L203.37 79.91H196.73L205.73 89.65L196.26 99.65H202.43L208.74 92.84L214.79 99.65H221.4L212.05 88.95L220.94 79.92V79.91ZM194.6 79.91H173.81V99.64H195.01V95.14H178.61V91.57H192.64V87.45H178.61V83.97H194.6V79.91ZM168.96 79.91H163.93V93.04L150.74 79.91H145.65V99.64H150.68V86.05L163.98 99.64H168.95V79.91H168.96Z" fill="#878787"/>
</g>
</svg>
