<svg width="206" height="206" viewBox="0 0 206 206" fill="none" xmlns="http://www.w3.org/2000/svg">
<circle cx="103" cy="103" r="96.5" stroke="white" stroke-width="13"/>
<circle cx="103" cy="102" r="79.5" stroke="white" stroke-width="7"/>
<circle cx="103" cy="101" r="66.5" stroke="white" stroke-width="3"/>
<line x1="103.498" y1="167.127" x2="103.498" y2="157.127" stroke="white" stroke-width="9"/>
<line x1="102.475" y1="34.4034" x2="102.804" y2="47.3993" stroke="white" stroke-width="7"/>
<line x1="117.742" y1="42.4886" x2="117.742" y2="63.5124" stroke="white" stroke-width="7"/>
<line x1="88.0081" y1="42.492" x2="88.0081" y2="63.5158" stroke="white" stroke-width="7"/>
<line x1="118.516" y1="44.992" x2="86.5002" y2="44.992" stroke="white" stroke-width="6"/>
<line x1="53.5" y1="95.2334" x2="98.5" y2="95.2334" stroke="white" stroke-width="4"/>
<line x1="53.5" y1="107.233" x2="98.5" y2="107.233" stroke="white" stroke-width="4"/>
<line x1="55" y1="94.2167" x2="55" y2="109.25" stroke="white" stroke-width="4"/>
<line x1="108.75" y1="51.5" x2="108.75" y2="96.5" stroke="white" stroke-width="4"/>
<line x1="96.75" y1="51.5" x2="96.75" y2="96.5" stroke="white" stroke-width="4"/>
<line x1="109.767" y1="53" x2="94.7333" y2="53" stroke="white" stroke-width="4"/>
<line x1="96.5166" y1="150.233" x2="96.5166" y2="105.233" stroke="white" stroke-width="4"/>
<line x1="108.517" y1="150.233" x2="108.517" y2="105.233" stroke="white" stroke-width="4"/>
<line x1="95.5" y1="148.733" x2="110.533" y2="148.733" stroke="white" stroke-width="4"/>
<line x1="152.5" y1="107.25" x2="107.5" y2="107.25" stroke="white" stroke-width="4"/>
<line x1="152.5" y1="95.2501" x2="107.5" y2="95.2501" stroke="white" stroke-width="4"/>
<line x1="151" y1="108.267" x2="151" y2="93.2334" stroke="white" stroke-width="4"/>
</svg>
